<svg width="700pt" height="700pt" version="1.1" viewBox="0 0 700 700" xmlns="http://www.w3.org/2000/svg" xmlns:xlink="http://www.w3.org/1999/xlink">
 <g>
  <path d="m556.77 216.86 72.492 72.492c6.7266 6.7266 6.7266 17.637 0 24.367-6.7305 6.7305-17.641 6.7305-24.367 0l-48.125-48.125v96.25c0 9.5156-7.7148 17.23-17.23 17.23-9.5156 0-17.23-7.7148-17.23-17.23v-96.25l-48.125 48.125c-6.7305 6.7305-17.637 6.7305-24.367 0-6.7305-6.7305-6.7305-17.641 0-24.367l72.492-72.492v-54.648l-39.508 39.508c-6.7305 6.7305-17.641 6.7305-24.371 0-6.7266-6.7305-6.7266-17.641 0-24.367l63.879-63.879v-54.648l-22.277 22.277c-6.7305 6.7305-17.641 6.7305-24.367 0-6.7305-6.7266-6.7305-17.637 0-24.367l51.691-51.691c6.7266-6.7305 17.637-6.7305 24.367 0l51.691 51.691c6.7305 6.7305 6.7305 17.641 0 24.367-6.7266 6.7305-17.637 6.7305-24.367 0l-22.277-22.277v54.648l63.875 63.879c6.7305 6.7266 6.7305 17.637 0 24.367-6.7266 6.7305-17.637 6.7305-24.367 0l-39.508-39.508zm-394.83 24.367-27.324-27.324-48.125 48.125c-6.7305 6.7266-17.641 6.7266-24.367 0-6.7305-6.7305-6.7305-17.641 0-24.367l60.305-60.309c6.7305-6.7305 17.641-6.7305 24.371 0l39.508 39.508 39.508-39.508c6.7305-6.7305 17.637-6.7305 24.367 0l146.46 146.46c6.7305 6.7305 6.7305 17.637 0 24.367-6.7266 6.7305-17.637 6.7305-24.367 0l-134.28-134.28-99.816 99.816c-6.7305 6.7305-17.637 6.7305-24.367 0-6.7305-6.7305-6.7305-17.641 0-24.367zm-78.383 195.46c-8.0273 5.1094-18.68 2.7422-23.789-5.2852-5.1094-8.0312-2.7422-18.68 5.2891-23.789 6.457-4.1094 18.227-9.7695 35.223-15.262 65.691-21.223 151.14-21.223 255.17 13.453 97 32.332 174.92 32.332 233.68 13.352 8.3203-2.6875 15.402-5.5391 21.242-8.3477 3.293-1.582 5.3203-2.7188 6.0742-3.1953 8.0273-5.1094 18.68-2.7422 23.789 5.2852s2.7422 18.68-5.2891 23.789c-6.457 4.1094-18.227 9.7695-35.223 15.262-65.691 21.223-151.14 21.223-255.17-13.453-97-32.332-174.92-32.332-233.68-13.352-8.3203 2.6875-15.402 5.5391-21.242 8.3477-3.293 1.582-5.3203 2.7148-6.0742 3.1953zm0 86.152c-8.0273 5.1094-18.68 2.7422-23.789-5.2852s-2.7422-18.68 5.2891-23.789c6.457-4.1094 18.227-9.7695 35.223-15.262 65.691-21.223 151.14-21.223 255.17 13.453 97 32.332 174.92 32.332 233.68 13.352 8.3203-2.6875 15.402-5.5391 21.242-8.3438 3.293-1.5859 5.3203-2.7188 6.0742-3.1992 8.0273-5.1094 18.68-2.7422 23.789 5.2891 5.1094 8.0273 2.7422 18.676-5.2891 23.785-6.457 4.1133-18.227 9.7695-35.223 15.262-65.691 21.223-151.14 21.223-255.17-13.453-97-32.332-174.92-32.332-233.68-13.352-8.3203 2.6875-15.402 5.5391-21.242 8.3477-3.293 1.582-5.3203 2.7188-6.0742 3.1953zm85.52-402.23c-33.309 0-60.309-27.004-60.309-60.309 0-33.309 27-60.309 60.309-60.309 33.305 0 60.305 27 60.305 60.309 0 33.305-27 60.309-60.305 60.309zm0-34.465c14.273 0 25.844-11.57 25.844-25.844 0-14.273-11.57-25.848-25.844-25.848-14.277 0-25.848 11.574-25.848 25.848 0 14.273 11.57 25.844 25.848 25.844z"/>
 </g>
</svg>
