<svg width="700pt" height="700pt" version="1.1" viewBox="0 0 700 700" xmlns="http://www.w3.org/2000/svg">
 <g>
  <path d="m585.79 349.71v-260.11c0-12.039-4.7812-23.586-13.293-32.098-8.5117-8.5117-20.059-13.293-32.098-13.293h-43.031v-14.738c0-5.2656-2.8086-10.129-7.3672-12.762-4.5586-2.6328-10.176-2.6328-14.738 0-4.5586 2.6328-7.3672 7.4961-7.3672 12.762v14.738h-117.89v-14.738c0-5.2656-2.8086-10.129-7.3672-12.762-4.5625-2.6328-10.18-2.6328-14.738 0-4.5586 2.6328-7.3672 7.4961-7.3672 12.762v14.738h-117.89v-14.738c0-5.2656-2.8086-10.129-7.3711-12.762-4.5586-2.6328-10.176-2.6328-14.734 0-4.5625 2.6328-7.3711 7.4961-7.3711 12.762v14.738h-43.031c-12.035 0-23.582 4.7812-32.094 13.293-8.5117 8.5117-13.293 20.059-13.293 32.098v321.85c0 12.039 4.7812 23.582 13.293 32.094s20.059 13.297 32.094 13.297h253.18c8.8672 35.078 33.352 64.145 66.414 78.84 33.062 14.699 71.043 13.398 103.02-3.5234 31.98-16.922 54.422-47.594 60.871-83.195 6.4492-35.602-3.8086-72.195-27.824-99.258zm-455.66-276.02h43.031v14.738c0 5.2656 2.8086 10.129 7.3711 12.762 4.5586 2.6328 10.176 2.6328 14.734 0 4.5625-2.6328 7.3711-7.4961 7.3711-12.762v-14.738h117.89v14.738c0 5.2656 2.8086 10.129 7.3672 12.762 4.5586 2.6328 10.176 2.6328 14.738 0 4.5586-2.6328 7.3672-7.4961 7.3672-12.762v-14.738h117.89v14.738c0 5.2656 2.8086 10.129 7.3672 12.762 4.5625 2.6328 10.18 2.6328 14.738 0 4.5586-2.6328 7.3672-7.4961 7.3672-12.762v-14.738h43.031c4.2227 0 8.2695 1.6758 11.254 4.6641 2.9883 2.9844 4.6641 7.0312 4.6641 11.254v43.031h-442.11v-43.031c0-4.2227 1.6758-8.2695 4.6602-11.254 2.9844-2.9883 7.0352-4.6641 11.254-4.6641zm0 353.68c-4.2188 0-8.2695-1.6758-11.254-4.6602s-4.6602-7.0352-4.6602-11.254v-249.35h442.11v163.29c-36.457-21.051-81.375-21.062-117.84-0.03125s-58.957 59.91-59 102.01zm367.24 88.422c-23.449 0-45.941-9.3164-62.523-25.898s-25.895-39.07-25.895-62.523c0-23.449 9.3125-45.941 25.895-62.523s39.074-25.895 62.523-25.895c23.453 0 45.941 9.3125 62.523 25.895s25.898 39.074 25.898 62.523c0 23.453-9.3164 45.941-25.898 62.523s-39.07 25.898-62.523 25.898z"/>
  <path d="m512.11 421.33v-52.906c0-5.2656-2.8086-10.129-7.3672-12.762-4.5625-2.6328-10.18-2.6328-14.738 0-4.5586 2.6328-7.3672 7.4961-7.3672 12.762v58.949-0.003906c-0.023437 3.918 1.5156 7.6836 4.2734 10.465l29.473 29.473c2.7656 2.7891 6.5352 4.3594 10.465 4.3594s7.6953-1.5703 10.461-4.3594c2.7891-2.7656 4.3594-6.5312 4.3594-10.461s-1.5703-7.6992-4.3594-10.465z"/>
  <path d="m223.41 191.58h-41.559c-6.2148 0-12.172 2.4688-16.566 6.8633-4.3945 4.3945-6.8633 10.355-6.8633 16.57v41.559c0 6.2109 2.4688 12.172 6.8633 16.566 4.3945 4.3945 10.352 6.8633 16.566 6.8633h41.559c6.2148 0 12.176-2.4688 16.57-6.8633s6.8633-10.355 6.8633-16.566v-41.559c0-6.2148-2.4688-12.176-6.8633-16.57-4.3945-4.3945-10.355-6.8633-16.57-6.8633zm-6.043 58.949h-29.473v-29.477h29.473z"/>
  <path d="m223.41 309.47h-41.559c-6.2148 0-12.172 2.4688-16.566 6.8633-4.3945 4.3945-6.8633 10.355-6.8633 16.57v41.559c0 6.2109 2.4688 12.172 6.8633 16.566 4.3945 4.3945 10.352 6.8633 16.566 6.8633h41.559c6.2148 0 12.176-2.4688 16.57-6.8633s6.8633-10.355 6.8633-16.566v-41.559c0-6.2148-2.4688-12.176-6.8633-16.57-4.3945-4.3945-10.355-6.8633-16.57-6.8633zm-6.043 58.949h-29.473v-29.473h29.473z"/>
  <path d="m356.04 191.58h-41.559c-6.2148 0-12.176 2.4688-16.57 6.8633-4.3945 4.3945-6.8633 10.355-6.8633 16.57v41.559c0 6.2109 2.4688 12.172 6.8633 16.566 4.3945 4.3945 10.355 6.8633 16.57 6.8633h41.559c6.2148 0 12.172-2.4688 16.566-6.8633s6.8633-10.355 6.8633-16.566v-41.559c0-6.2148-2.4688-12.176-6.8633-16.57-4.3945-4.3945-10.352-6.8633-16.566-6.8633zm-6.043 58.949h-29.473v-29.477h29.473z"/>
  <path d="m356.04 309.47h-41.559c-6.2148 0-12.176 2.4688-16.57 6.8633-4.3945 4.3945-6.8633 10.355-6.8633 16.57v41.559c0 6.2109 2.4688 12.172 6.8633 16.566 4.3945 4.3945 10.355 6.8633 16.57 6.8633h41.559c6.2148 0 12.172-2.4688 16.566-6.8633s6.8633-10.355 6.8633-16.566v-41.559c0-6.2148-2.4688-12.176-6.8633-16.57-4.3945-4.3945-10.352-6.8633-16.566-6.8633zm-6.043 58.949h-29.473v-29.473h29.473z"/>
  <path d="m447.12 280h41.559-0.003906c6.2148 0 12.176-2.4688 16.57-6.8633 4.3945-4.3945 6.8633-10.355 6.8633-16.566v-41.559c0-6.2148-2.4688-12.176-6.8633-16.57-4.3945-4.3945-10.355-6.8633-16.57-6.8633h-41.555c-6.2148 0-12.176 2.4688-16.57 6.8633-4.3945 4.3945-6.8633 10.355-6.8633 16.57v41.559c0 6.2109 2.4688 12.172 6.8633 16.566s10.355 6.8633 16.57 6.8633zm6.0391-58.949h29.473v29.473l-29.473 0.003906z"/>
 </g>
</svg>
