<svg width="700pt" height="700pt" version="1.1" viewBox="0 0 700 700" xmlns="http://www.w3.org/2000/svg" xmlns:xlink="http://www.w3.org/1999/xlink">
<g>
<path d="m337.41 300.72c-13.945-10.07-29.199 11.008-15.234 21.094 13.945 10.07 29.199-11.008 15.234-21.094z"/>
<path d="m373.2 347.45c0 7.1836-5.8242 13.012-13.012 13.012-7.1836 0-13.012-5.8281-13.012-13.012 0-7.1875 5.8281-13.012 13.012-13.012 7.1875 0 13.012 5.8242 13.012 13.012"/>
<path d="m304.52 345.25c6.4805 6.9141 12.926 12.066 19.836 16.672 4.1406-5.832 2.7969-13.922-3.0039-18.109-5.2383-3.7812-12.355-3.0859-16.832 1.4375z"/>
<path d="m368.38 275.86c0 7.1836-5.8242 13.008-13.012 13.008-7.1836 0-13.008-5.8242-13.008-13.008 0-7.1875 5.8242-13.012 13.008-13.012 7.1875 0 13.012 5.8242 13.012 13.012"/>
<path d="m403.64 254.57c-6.6445-5.1797-13.539-9.6484-22.066-13.586-2.8984 5.5898-1.3086 12.648 3.9297 16.43 5.8008 4.1875 13.902 2.9219 18.137-2.8438z"/>
<path d="m516.77 418.55c51.934-159.97-155.31-247.74-215.34-269.46-162.68-58.871-143.71-136.73-144.84-137.89-27.289 104.34 18.488 225.16 50.094 291.01 18.68 38.922 44.559 74.23 78.172 101.32 106.73 86.004 202.86 41.852 223.06 30.883 0.007813 0.019532 0.019532 0.039063 0.027344 0.058594 15.926 35.836 24.176 75.082 24.176 114.33l19.625-0.28516c-1.7031-45.219-13.645-90.152-34.977-129.97zm-95.543-195.64c1.5547-2.6758 4.9883-3.5664 7.6562-2.0234 2.6758 1.5547 3.582 4.9805 2.0234 7.6562-2.832 4.8672-5.7734 9.8477-9.0625 15.066-0.16406 0.26172-0.44531 0.37891-0.64453 0.60156-2.7109-2.4492-5.5547-4.8008-8.543-7.0508 3.0898-4.9141 5.8945-9.6445 8.5703-14.25zm-63.969-33.891c2.7656-1.3672 6.125-0.26172 7.5156 2.5039 1.2891 2.5859 9.8672 20.688 10.777 23.215 0.42188 1.1562 0.33984 2.332 0.027344 3.4297-3.9922-1.2344-8.0156-2.2461-12.062-3.0234-2.5469-5.582-7.4688-16.023-8.7617-18.613-1.3828-2.7617-0.26172-6.125 2.5039-7.5117zm-95.523 55.93c-0.19531-5.9141 3.6016-11.172 9.2773-12.844 7.3125-2.1562 17.598-4.7578 26.066-5.3477 0.26953-0.34375 0.48438-0.625 0.76172-0.97656-3.8672-12.281-5.8125-18.984-6.5781-21.828 2.6602 5.168 7.8984 16.934 10.246 22.27l-0.29297 0.46094c3.582 0.085937 6.6523 0.64453 8.5977 2.0508 10.023 7.2383 9.3984 25.219-1.3945 40.16-12.121 16.781-35.648 25.129-42.34 6.4336l-0.34375 0.42188c-5.5156-0.5-18.922-1.8711-24.363-2.7227 5.6367-0.37891 16.434-0.52344 22.789-0.61719 0.25-0.37109 0.44531-0.66406 0.6875-1.0273-2.0977-8.2305-2.8594-18.812-3.1133-26.434zm16.5 104.64c-0.1875 0-0.37891-0.011719-0.57031-0.027344-8.9453-0.90234-18.348-1.9297-25.031-2.9492-3.0547-0.46484-5.1562-3.3203-4.6914-6.375 0.46484-3.0547 3.2891-5.1953 6.375-4.6914 5.5039 0.83984 12.898 1.6719 20.324 2.4414 2.0078 3.6211 4.2891 7.1211 6.7188 10.543-0.90625 0.62891-1.957 1.0586-3.125 1.0586zm41.777 35-1.543 1.8047c-3.3789 3.9648-6.6172 7.7617-9.8555 11.391-1.1055 1.2383-2.6406 1.8711-4.1758 1.8711-1.3281 0-2.6562-0.46875-3.7305-1.4219-2.3086-2.0547-2.5117-5.5938-0.44922-7.9102 3.1836-3.5664 6.3672-7.3008 9.6914-11.199l1.1211-1.3164c3.0664 2.125 6.2188 4.082 9.4297 5.9023-0.16797 0.29297-0.26172 0.61328-0.48828 0.87891zm53.293 46.141c-0.82031 0.42578-1.6953 0.625-2.5586 0.625-2.0352 0-3.9922-1.1055-4.9805-3.0352-3.6094-7.0117-8.418-17.598-12.637-26.91l-0.81641-1.7891c-0.51172-1.1328-0.51953-2.332-0.27734-3.4609 3.9727 0.92969 7.9609 1.6094 11.957 2.0859 3.9805 8.7734 8.375 18.43 11.727 24.945 1.4141 2.75 0.33594 6.1289-2.4141 7.5391zm61.613-70.496c-40.977 56.508-145.04 20.648-160.27-53.648-0.67188-3.4727-0.78516-6.9453-0.33594-10.305 2.0156 0.55859 4.1445 0.78516 6.2734 0.78516 13.105 0 27.328-8.2891 36.961-21.617 6.4961-8.9609 10.191-19.375 10.527-29.121 0.22266-6.9453-1.2305-13.328-4.3672-18.48 3.0234-1.457 6.3828-2.4648 9.8555-2.9102 75.434-8.918 142.12 78.648 101.36 135.3zm42.469-75.945c-5.3047 0.33984-10.605 0.48828-15.859 0.63281l-11.031 0.3125c-1.4688-3.5508-3.1133-7.0586-5-10.504 0.69141-0.35156 1.4492-0.58594 2.2695-0.62109l13.441-0.38672c5.125-0.14062 10.293-0.28516 15.465-0.61328 3.0234-0.125 5.7422 2.1445 5.9453 5.2344 0.19922 3.0859-2.1484 5.75-5.2305 5.9453z"/>
<path d="m437.36 337.48c2.2148-8.2891 2.8633-17.07 1.8867-25.961-4.4023-0.40625-8.8945 1.4766-11.699 5.3555-6.0547 8.3867-0.33594 19.949 9.8125 20.605z"/>
<path d="m394.37 367.31c-2.8047 3.8828-3.1758 8.7344-1.4062 12.789 8.7031-1.8984 16.879-5.2422 24.008-9.9883-3.8359-9.4805-16.594-11.121-22.602-2.8008z"/>
<path d="m412.27 293.34c0 7.1875-5.8242 13.012-13.008 13.012-7.1875 0-13.012-5.8242-13.012-13.012s5.8242-13.012 13.012-13.012c7.1836 0 13.008 5.8242 13.008 13.012"/>
</g>
</svg>
