<svg version="1.1" viewBox="0 0 700 700" xmlns="http://www.w3.org/2000/svg" xmlns:xlink="http://www.w3.org/1999/xlink">
<g>
<path d="m293.44 239.12c-22.398 0-40.879 18.48-40.879 40.879s18.48 40.879 40.879 40.879c22.398 0 40.879-18.48 40.879-40.879s-18.48-40.879-40.879-40.879z"/>
<path d="m575.12 239.12c-22.398 0-40.879 18.48-40.879 40.879s18.48 40.879 40.879 40.879c22.398 0 40.879-18.48 40.879-40.879s-18.48-40.879-40.879-40.879z"/>
<path d="m451.36 322.56c2.2383 2.2383 5.0391 3.3594 8.3984 3.3594 3.3594 0 6.1602-1.1211 8.3984-3.3594l34.719-34.719c2.2383-2.2383 3.3594-5.0391 3.3594-8.3984s-1.1211-6.1602-3.3594-8.3984l-34.719-34.719c-4.4805-4.4805-11.762-4.4805-16.238 0-4.4805 4.4805-4.4805 11.762 0 16.238l14.559 14.559h-92.398c-6.1602 0-11.762 5.0391-11.762 11.762 0 6.7188 5.0391 11.762 11.762 11.762h92.398l-14.559 14.559c-5.0391 5.5977-5.0391 12.875-0.55859 17.355z"/>
<path d="m190.4 237.44c-4.4805-4.4805-11.762-4.4805-16.238 0-4.4805 4.4805-4.4805 11.762 0 16.238l15.121 14.559h-93.52c-6.7188 0-11.762 5.0391-11.762 11.762 0 6.7188 5.0391 11.762 11.762 11.762h92.961l-15.121 14.559c-4.4805 4.4805-4.4805 11.762 0 16.238 2.2383 2.2383 5.0391 3.3594 8.3984 3.3594s6.1602-1.1211 8.3984-3.3594l34.719-34.719c2.2383-2.2383 3.3594-5.0391 3.3594-8.3984s-1.1211-6.1602-3.3594-8.3984z"/>
<path d="m463.68 450.24c-16.238 16.238-16.238 42 0 58.238 16.238 16.238 42 16.238 58.238 0 16.238-16.238 16.238-42 0-58.238s-42.559-16.238-58.238 0z"/>
<path d="m435.68 361.76c-6.1602 0-11.762 5.0391-11.762 11.762v20.719l-64.957-65.523c-4.4805-4.4805-11.762-4.4805-16.238 0-4.4805 4.4805-4.4805 11.762 0 16.238l64.961 64.961h-20.719c-6.1602 0-11.762 5.0391-11.762 11.762 0 6.1602 5.0391 11.762 11.762 11.762h48.719c6.1602 0 11.762-5.0391 11.762-11.762v-48.719c-0.56641-6.1602-5.6055-11.199-11.766-11.199z"/>
<path d="m463.68 52.078c-16.238 16.238-16.238 42 0 58.238 16.238 16.238 42 16.238 58.238 0 16.238-16.238 16.238-42 0-58.238s-42.559-16.238-58.238 0z"/>
<path d="m350.56 234.64c2.8008 0 6.1602-1.1211 8.3984-3.3594l64.961-64.961v20.719c0 6.1602 5.0391 11.762 11.762 11.762 6.7188 0 11.762-5.0391 11.762-11.762v-48.719c0-6.1602-5.0391-11.762-11.762-11.762h-48.719c-6.1602 0-11.762 5.0391-11.762 11.762 0 6.7188 5.0391 11.762 11.762 11.762h20.719l-65.52 64.398c-4.4805 4.4805-4.4805 11.762 0 16.238 2.2383 2.8008 5.6016 3.9219 8.3984 3.9219z"/>
</g>
</svg>
