<svg width="700pt" height="700pt" version="1.1" viewBox="0 0 700 700" xmlns="http://www.w3.org/2000/svg" xmlns:xlink="http://www.w3.org/1999/xlink">
 <g>
  <path d="m429.39 183.64h-158.08c-4.2383 0-7.6797-3.4414-7.6797-7.6797l-0.003906-85.535c0-4.2383 3.4414-7.6797 7.6797-7.6797h158.08c4.2383 0 7.6797 3.4414 7.6797 7.6797v85.52c0.003906 4.2539-3.4375 7.6953-7.6758 7.6953zm-150.4-15.359h142.72v-70.176h-142.72z" fill-rule="evenodd"/>
  <path d="m261.35 312.21h-79.055c-4.2383 0-7.6797-3.4414-7.6797-7.6797v-79.039c0-4.2383 3.4414-7.6797 7.6797-7.6797h79.039c4.2383 0 7.6797 3.4414 7.6797 7.6797v79.039c0.015625 4.2383-3.4258 7.6797-7.6641 7.6797zm-71.359-15.363h63.68v-63.68h-63.68z" fill-rule="evenodd"/>
  <path d="m518.4 312.21h-79.039c-4.2383 0-7.6797-3.4414-7.6797-7.6797v-79.039c0-4.2383 3.4414-7.6797 7.6797-7.6797h79.039c4.2383 0 7.6797 3.4414 7.6797 7.6797v79.039c-0.011719 4.2383-3.4375 7.6797-7.6797 7.6797zm-71.371-15.363h63.68v-63.68h-63.68z" fill-rule="evenodd"/>
  <path d="m151.79 479.23c-26.027 0-47.199-21.172-47.199-47.199s21.172-47.199 47.199-47.199 47.199 21.172 47.199 47.199c0.003906 26.027-21.172 47.199-47.199 47.199zm0-79.055c-17.559 0-31.84 14.281-31.84 31.84 0 17.559 14.281 31.84 31.84 31.84s31.84-14.281 31.84-31.84c0-17.547-14.277-31.84-31.84-31.84z" fill-rule="evenodd"/>
  <path d="m416.54 479.23c-26.027 0-47.199-21.172-47.199-47.199s21.172-47.199 47.199-47.199 47.199 21.172 47.199 47.199-21.176 47.199-47.199 47.199zm0-79.055c-17.559 0-31.84 14.281-31.84 31.84 0 17.559 14.281 31.84 31.84 31.84s31.84-14.281 31.84-31.84c0-17.547-14.281-31.84-31.84-31.84z" fill-rule="evenodd"/>
  <path d="m284.16 479.23c-26.027 0-47.199-21.172-47.199-47.199s21.172-47.199 47.199-47.199 47.199 21.172 47.199 47.199-21.172 47.199-47.199 47.199zm0-79.055c-17.559 0-31.84 14.281-31.84 31.84 0 17.559 14.281 31.84 31.84 31.84s31.84-14.281 31.84-31.84c0-17.547-14.281-31.84-31.84-31.84z" fill-rule="evenodd"/>
  <path d="m548.91 479.23c-26.027 0-47.199-21.172-47.199-47.199s21.172-47.199 47.199-47.199 47.199 21.172 47.199 47.199-21.172 47.199-47.199 47.199zm0-79.055c-17.559 0-31.84 14.281-31.84 31.84 0 17.559 14.281 31.84 31.84 31.84s31.84-14.281 31.84-31.84c0-17.547-14.281-31.84-31.84-31.84z" fill-rule="evenodd"/>
  <path d="m438.19 272.61h-175.59c-4.2383 0-7.6797-3.4414-7.6797-7.6797 0-4.2383 3.4414-7.6797 7.6797-7.6797h175.59c4.2383 0 7.6797 3.4414 7.6797 7.6797 0 4.2383-3.4414 7.6797-7.6797 7.6797z" fill-rule="evenodd"/>
  <path d="m350.35 272.12c-4.2383 0-7.6797-3.3984-7.6797-7.6133v-88.133c0-4.1992 3.4414-7.6133 7.6797-7.6133 4.2383 0 7.6797 3.3984 7.6797 7.6133v88.133c0 4.1992-3.4414 7.6133-7.6797 7.6133z" fill-rule="evenodd"/>
  <path d="m284.27 399.6c-4.2383 0-7.6797-3.4414-7.6797-7.6797v-32.055h-54.922c-4.2383 0-7.6797-3.4414-7.6797-7.6797v-46.746c0-4.2383 3.4414-7.6797 7.6797-7.6797 4.2383 0 7.6797 3.4414 7.6797 7.6797v39.066h54.922c4.2383 0 7.6797 3.4414 7.6797 7.6797v39.719c0 4.2539-3.4375 7.6953-7.6797 7.6953z" fill-rule="evenodd"/>
  <path d="m151.79 399.35c-4.2383 0-7.6797-3.4414-7.6797-7.6797v-39.48c0-4.2383 3.4414-7.6797 7.6797-7.6797h69.879c4.2383 0 7.6797 3.4414 7.6797 7.6797s-3.4414 7.6797-7.6797 7.6797h-62.199v31.801c0 4.2383-3.4375 7.6797-7.6797 7.6797z" fill-rule="evenodd"/>
  <path d="m416.43 399.27c-4.2383 0-7.6797-3.4414-7.6797-7.6797v-40.652c0-4.2383 3.4414-7.6797 7.6797-7.6797h54.613v-38.266c0-4.2383 3.4414-7.6797 7.6797-7.6797s7.6797 3.4414 7.6797 7.6797v45.945c0 4.2383-3.4414 7.6797-7.6797 7.6797h-54.613v32.973c0 4.2422-3.4375 7.6797-7.6797 7.6797z" fill-rule="evenodd"/>
  <path d="m548.91 399.56c-4.2383 0-7.6797-3.4414-7.6797-7.6797v-33.266h-62.508c-4.2383 0-7.6797-3.4414-7.6797-7.6797 0-4.2383 3.4414-7.6797 7.6797-7.6797h70.188c4.2383 0 7.6797 3.4414 7.6797 7.6797v40.945c0 4.2422-3.4375 7.6797-7.6797 7.6797z" fill-rule="evenodd"/>
 </g>
</svg>
