<svg xmlns="http://www.w3.org/2000/svg" xmlns:xlink="http://www.w3.org/1999/xlink" version="1.1" x="0px" y="0px" viewBox="0 0 60 80" style="enable-background:new 0 0 60 64;" xml:space="preserve"><g><path d="M14,2h4v16.4l5-5l5,5V0h-9h-1h-6v20h2V2z M20,2h6v11.6l-3-3l-3,3V2z"/><path d="M51.4,0H30v2h20v8h8v52H18v2h42V8.6L51.4,0z M52,3.4L56.6,8H52V3.4z"/><rect x="30" y="54" width="24" height="2"/><rect x="34" y="50" width="2" height="2"/><rect x="30" y="50" width="2" height="2"/><rect x="38" y="50" width="16" height="2"/><rect x="52" y="58" width="2" height="2"/><rect x="38" y="38" width="16" height="2"/><rect x="30" y="26" width="24" height="2"/><rect x="30" y="22" width="24" height="2"/><rect x="30" y="34" width="24" height="2"/><rect x="30" y="30" width="24" height="2"/><rect x="42" y="14" width="12" height="2"/><path d="M8.4,45C4.5,43.2,2,39.3,2,35c0-6.1,4.9-11,11-11s11,4.9,11,11c0,4.3-2.5,8.2-6.4,10l0.8,1.8C23,44.7,26,40.1,26,35   c0-7.2-5.8-13-13-13S0,27.8,0,35c0,5.1,3,9.7,7.6,11.8L8.4,45z"/><path d="M20,60v-2h-2v-2h2v-2h-2v-2h2v-2h-6V36h4v-2h-6v16H6v2h2v2H6v2h2v2H6v2h2.5l3,4h3l3-4H20z M10,52h6v2h-6V52z M10,56h6v2h-6   V56z M13.5,62h-1L11,60h4L13.5,62z"/><rect x="8" y="34" width="2" height="2"/></g></svg>