<svg xmlns="http://www.w3.org/2000/svg" xmlns:xlink="http://www.w3.org/1999/xlink" version="1.1" x="0px" y="0px" viewBox="0 0 32 40" style="enable-background:new 0 0 32 32;" xml:space="preserve"><g><path d="M31.4,14.8c-0.9-3.5-4.3-6.6-7.8-4.4c-1.5-2.5-3.8-4.6-6.9-4.8c-4.4-0.4-6.7,1.8-8.4,5.5c-2.6-0.2-5.1,0.7-6.6,3.3 c-2,3.4-2,10.1,0.7,13.2c0.1,0.1,0.3,0.2,0.4,0.2c8.8,0.8,17.6,1,26.5,0.4c0,0,0,0,0,0c0.1,0,0.3-0.1,0.4-0.2 C31.8,24.2,32.5,18.9,31.4,14.8z M29,27.1c-8.7,0.5-17.3,0.4-25.9-0.4C0.8,24,0.9,18.2,2.3,15.3c2-4,6.7-3.9,10.2-1.9 c0.6,0.3,1.1-0.5,0.5-0.9c-1.1-0.7-2.4-1.1-3.7-1.4c0.4-1,0.8-2,1.6-2.8c1.4-1.6,3.8-2,5.8-1.8c3.5,0.3,5.8,3.3,7.1,6.3 c0.3,0.6,1.1,0.1,0.9-0.5c-0.2-0.4-0.4-0.8-0.6-1.1c4.2-2.8,6.6,3.5,6.7,6.8C30.9,21,30.4,24.4,29,27.1z"/><path d="M12.8,23.1c-2.5,0.3-5.6-0.1-5.4-3.2c0.1-3,2.5-4.2,5.2-3.1c0.6,0.2,0.9-0.7,0.3-1c-3.1-1.2-6,0.2-6.4,3.6 c-0.4,3.9,3,5.1,6.4,4.7C13.5,24,13.5,23,12.8,23.1z"/><path d="M17.4,15.2c-0.3,0-0.4,0.3-0.3,0.6c-1.8,0.9-2.9,2.8-2.4,4.9c0.5,2.5,2.9,3.5,5.3,3.2c2.4-0.3,3.3-2.7,2.8-4.8 C22,16.2,20.3,14.8,17.4,15.2z M19.2,22.9c-1.7,0-3.2-0.6-3.6-2.5c-0.4-1.8,0.7-3.4,2.4-4c0.2-0.1,0.3-0.2,0.3-0.3 c1.8,0,2.9,1.1,3.4,3C22.2,21.1,21.5,22.9,19.2,22.9z"/><path d="M26.7,25c-0.8-0.1-1.6-0.4-2.3-0.7c0.5-0.3,1.2-0.4,1.7-0.9c0.5-0.5,0.7-1.3,0.5-2.1c-0.4-1.3-2.1-1.6-2.9-0.5 c-0.4,0.5,0.5,1,0.9,0.5c0.5-0.7,1.2,0.2,1.1,0.8c-0.1,0.6-0.6,0.8-1.1,1c-0.5,0.2-1,0.4-1.4,0.8c-0.2,0.2-0.2,0.6,0.1,0.8 c1,0.6,2.1,1,3.2,1.2C27.1,26.1,27.4,25.2,26.7,25z"/></g></svg>