<svg xmlns="http://www.w3.org/2000/svg" viewBox="0 0 333 416.25" fill-rule="evenodd" clip-rule="evenodd" shape-rendering="geometricPrecision" text-rendering="geometricPrecision" image-rendering="optimizeQuality"><path d="M70 44h113l7 13h-9l13 82h131l-6 34-13 33c-10-7-22-11-35-11-24 0-47 16-55 39l-3 9h-77c0 1-1 2-1 4 3 2 5 5 3 8l-4 6c-2 3-5 3-8 1-3 3-5 6-9 9 2 3 2 6-1 8l-6 4c-3 2-6 0-8-3l-12 3c0 3-1 6-5 6h-7c-4 0-6-3-6-6-4-1-7-2-11-3-2 3-5 5-8 3l-6-4c-3-2-3-5-2-8-3-3-5-6-8-9-3 2-7 2-9-1l-3-6c-2-3 0-6 3-8l-3-12c-4 0-7-2-7-5v-7c0-4 3-6 7-6 1-4 2-7 3-11-3-2-5-5-3-8l3-6c2-3 6-3 9-2 3-3 5-6 8-8-1-3-1-7 2-9l6-3c3-2 6 0 8 3 4-1 7-2 11-3 0-4 2-7 6-7h7c4 0 5 3 5 7l12 3c2-3 5-5 8-3l6 3c3 2 3 6 1 9 4 2 6 5 9 8 3-1 6-1 8 2l4 6c2 3 0 6-3 8l3 9h22v8h35v-15h-35v-6h35v-7h-35v-8h35v-17h-35v15l-39-37H72V57h-9l7-13zm201 199c5 0 9 4 9 9s-4 8-9 8c-4 0-8-3-8-8s4-9 8-9zm0-29c21 0 38 17 38 38s-17 37-38 37c-20 0-37-16-37-37s17-38 37-38zm0 18c11 0 20 9 20 20s-9 19-20 19c-10 0-19-8-19-19s9-20 19-20zm0-31c22 0 42 14 49 35h-8c-6-16-22-28-41-28-18 0-34 12-41 28h-8c8-21 28-35 49-35zM43 154h76l34 34v21h-10c-1 0-1-1-1-1 3-4 4-9 1-14l-3-5c-3-5-7-7-12-6l-3-3c1-5-1-9-6-12l-6-3c-4-3-9-2-13 1-1-1-3-1-4-2-2-4-6-7-11-7h-7c-5 0-9 3-11 7-1 1-3 1-4 2-4-3-9-4-13-1l-6 3c-5 3-7 7-6 12l-3 3c-5-1-9 1-12 6l-3 5c-3 5-2 10 1 14l-1 1H8v-21l35-34zm38 54c11 0 19 8 19 18s-8 19-19 19c-10 0-18-9-18-19s8-18 18-18zm0-23c23 0 41 19 41 41 0 23-18 41-41 41-22 0-41-18-41-41 0-22 19-41 41-41zm88-128h-44v82h57l-13-82zm-65 0H83v82h21V57z"/></svg>