<svg xmlns="http://www.w3.org/2000/svg" xmlns:xlink="http://www.w3.org/1999/xlink" version="1.1" x="0px" y="0px" viewBox="0 0 90 112.5" style="enable-background:new 0 0 90 90;" xml:space="preserve"><path d="M45,56.830566c-2.658203,0-4.821289,2.163086-4.821289,4.821777S42.341797,66.473633,45,66.473633 s4.821289-2.162598,4.821289-4.821289S47.658203,56.830566,45,56.830566z M45,65.973633 c-2.382813,0-4.321289-1.938477-4.321289-4.321289S42.617188,57.330566,45,57.330566s4.321289,1.938965,4.321289,4.321777 S47.382813,65.973633,45,65.973633z"/><path d="M45,59.667969c-0.137695,0-0.25,0.111816-0.25,0.25s0.112305,0.25,0.25,0.25 c0.839844,0,1.522461,0.683105,1.522461,1.522461c0,0.839844-0.682617,1.522949-1.522461,1.522949 c-0.137695,0-0.25,0.111816-0.25,0.25s0.112305,0.25,0.25,0.25c1.115234,0,2.022461-0.907715,2.022461-2.022949 S46.115234,59.667969,45,59.667969z"/><path d="M45,53.174316c-4.674805,0-8.477539,3.803223-8.477539,8.478027c0,4.674316,3.802734,8.477539,8.477539,8.477539 s8.477539-3.803223,8.477539-8.477539C53.477539,56.977539,49.674805,53.174316,45,53.174316z M45,69.629883 c-4.398438,0-7.977539-3.578613-7.977539-7.977539S40.601563,53.674316,45,53.674316s7.977539,3.579102,7.977539,7.978027 S49.398438,69.629883,45,69.629883z"/><path d="M19.182617,73.96875h2.708008v5.926758c0,0.138184,0.112305,0.25,0.25,0.25h7.294922c0.137695,0,0.25-0.111816,0.25-0.25 V73.96875h30.628906v5.926758c0,0.138184,0.112305,0.25,0.25,0.25h7.294922c0.137695,0,0.25-0.111816,0.25-0.25V73.96875h2.708008 c0.137695,0,0.25-0.111816,0.25-0.25V49.585449c0-0.138184-0.112305-0.25-0.25-0.25H57.077332l13.321106-39.150391 c0.026367-0.076172,0.013672-0.160645-0.033203-0.226074s-0.12207-0.104492-0.203125-0.104492H19.837891 c-0.081055,0-0.15625,0.039063-0.203125,0.104492s-0.05957,0.149902-0.033203,0.226074l13.321106,39.150391H19.182617 c-0.137695,0-0.25,0.111816-0.25,0.25V73.71875C18.932617,73.856934,19.044922,73.96875,19.182617,73.96875z M29.185547,79.645508 h-6.794922V73.96875h6.794922V79.645508z M67.609375,79.645508h-6.794922V73.96875h6.794922V79.645508z M20.1875,10.354492h49.625 L56.549805,49.335449H33.450195L20.1875,10.354492z M19.432617,49.835449h51.134766V73.46875H19.432617V49.835449z"/></svg>