<svg xmlns="http://www.w3.org/2000/svg" viewBox="0 0 64 80" x="0px" y="0px"><path d="M4.14,33.859,7.12,50.252A7,7,0,0,0,14.007,56H21V54H14.007a5,5,0,0,1-4.919-4.1L6.2,34H53.8l-1.059,5.821,1.968.358,1.149-6.32A2.991,2.991,0,0,0,55,28V27a24.848,24.848,0,0,0-3.156-12.141L53.4,11.432A6.671,6.671,0,0,0,47.328,2h-.382a6.684,6.684,0,0,0-5.43,2.821A24.946,24.946,0,0,0,22.709,3.087,6.933,6.933,0,0,0,19,2a7.008,7.008,0,0,0-7,7v.677A24.909,24.909,0,0,0,5,27v1a2.991,2.991,0,0,0-.86,5.859ZM46.946,4h.382a4.67,4.67,0,0,1,4.253,6.6L50.574,12.82c-.4-.58-.823-1.146-1.271-1.689l.365-.112-.586-1.913-1.258.386a25.214,25.214,0,0,0-4.563-3.671A4.678,4.678,0,0,1,46.946,4ZM19,4a5,5,0,0,1,.973.106,25.017,25.017,0,0,0-5.758,3.525A4.99,4.99,0,0,1,19,4ZM30,4A23.026,23.026,0,0,1,53,27v1H51V27A20.993,20.993,0,0,0,9.762,21.442,6.985,6.985,0,0,0,7,27,23.026,23.026,0,0,1,30,4ZM45.871,28l2.543-5.6a18.862,18.862,0,0,1,.479,2.6H48v2h1v1ZM30,10a7.023,7.023,0,0,0-4,1.32V9c0-.186-.031-.369-.046-.554A19.181,19.181,0,0,1,30,8a18.871,18.871,0,0,1,8.885,2.218l-1.923,4.168C35.076,11.629,32.663,10,30,10ZM24,8.972c0,.009,0,.019,0,.028v4.123a15.2,15.2,0,0,0-1.639,2.328l-.986-1.232-5,4,1.25,1.562,4.243-3.395a25.831,25.831,0,0,0-2.191,6.535,6.932,6.932,0,0,0-7.421-2.692A18.878,18.878,0,0,1,24,8.972ZM14,22a5.006,5.006,0,0,1,5,5v1H9V27A5.006,5.006,0,0,1,14,22ZM30,12c4.531,0,8.444,7.087,8.957,16H21.043C21.556,19.087,25.469,12,30,12ZM40.947,28c-.044-.845-.113-1.673-.21-2.479l1.869-.563-.577-1.916-1.592.48A26.428,26.428,0,0,0,38.19,16.5l2.422-5.249a19.171,19.171,0,0,1,4.976,4.919l-4.694,1.44.587,1.913,5.2-1.6q.444.813.81,1.671L43.674,28ZM5,30H55a1,1,0,0,1,0,2H5a1,1,0,0,1,0-2Z"/><path d="M34.585,17.189a1,1,0,0,0-.9-.138l-5.2,1.735A6.544,6.544,0,0,0,24,25a1,1,0,0,0,1,1,1.01,1.01,0,0,0,.316-.051l5.205-1.735A6.544,6.544,0,0,0,35,18,1,1,0,0,0,34.585,17.189Zm-4.7,5.127-3.647,1.216a4.544,4.544,0,0,1,2.869-2.848l3.647-1.216A4.544,4.544,0,0,1,29.889,22.316Z"/><rect x="42" y="37" width="6" height="2"/><rect x="32" y="37" width="6" height="2"/><rect x="22" y="37" width="6" height="2"/><rect x="12" y="37" width="6" height="2"/><rect x="12" y="43" width="6" height="2"/><rect x="12" y="49" width="6" height="2"/><rect x="11" y="24" width="2" height="2"/><rect x="15" y="25" width="2" height="2"/><path d="M58,42H24a4,4,0,0,0-1,7.874V59a3,3,0,0,0,3,3H56a3,3,0,0,0,3-3V49.874A4,4,0,0,0,58,42ZM26,60a1,1,0,0,1-1-1V49a1,1,0,0,0-1-1,2,2,0,0,1,0-4H40a2,2,0,0,1,0,4,1,1,0,0,0-1,1V59a1,1,0,0,1-1,1ZM58,48a1,1,0,0,0-1,1V59a1,1,0,0,1-1,1H40.816A2.966,2.966,0,0,0,41,59V49.874A4.009,4.009,0,0,0,44,46a3.959,3.959,0,0,0-.556-2H58a2,2,0,0,1,0,4Z"/><rect x="52" y="46" width="2" height="2"/><rect x="47" y="49" width="2" height="2"/><rect x="53" y="54" width="2" height="2"/><rect x="43" y="56" width="2" height="2"/></svg>