<?xml version="1.0" encoding="UTF-8" standalone="no"?>
<svg
   width="491.51801pt"
   height="396.48441pt"
   version="1.1"
   viewBox="0 0 491.51801 396.48441"
   id="svg12418"
   sodipodi:docname="_relationship-taxonomic.svg"
   inkscape:version="1.2.2 (732a01da63, 2022-12-09)"
   inkscape:export-filename="_relationship-taxonomic.webp"
   inkscape:export-xdpi="96"
   inkscape:export-ydpi="96"
   xmlns:inkscape="http://www.inkscape.org/namespaces/inkscape"
   xmlns:sodipodi="http://sodipodi.sourceforge.net/DTD/sodipodi-0.dtd"
   xmlns="http://www.w3.org/2000/svg"
   xmlns:svg="http://www.w3.org/2000/svg">
  <defs
     id="defs12422" />
  <sodipodi:namedview
     id="namedview12420"
     pagecolor="#ffffff"
     bordercolor="#000000"
     borderopacity="0.25"
     inkscape:showpageshadow="2"
     inkscape:pageopacity="0.0"
     inkscape:pagecheckerboard="0"
     inkscape:deskcolor="#d1d1d1"
     inkscape:document-units="pt"
     showgrid="false"
     inkscape:zoom="0.5625"
     inkscape:cx="-37.333333"
     inkscape:cy="357.33333"
     inkscape:window-width="1366"
     inkscape:window-height="705"
     inkscape:window-x="-8"
     inkscape:window-y="-8"
     inkscape:window-maximized="1"
     inkscape:current-layer="svg12418" />
  <g
     id="g12416"
     transform="translate(-104.591,-82.7456)"
     style="fill:#636363;fill-opacity:1">
    <path
       d="M 429.39,183.64 H 271.31 c -4.2383,0 -7.6797,-3.4414 -7.6797,-7.6797 l -0.004,-85.535 c 0,-4.2383 3.4414,-7.6797 7.6797,-7.6797 h 158.08 c 4.2383,0 7.6797,3.4414 7.6797,7.6797 v 85.52 c 0.004,4.2539 -3.4375,7.6953 -7.6758,7.6953 z M 278.99,168.281 H 421.71 V 98.105 H 278.99 Z"
       fill-rule="evenodd"
       id="path12390"
       style="fill:#636363;fill-opacity:1" />
    <path
       d="m 261.35,312.21 h -79.055 c -4.2383,0 -7.6797,-3.4414 -7.6797,-7.6797 v -79.039 c 0,-4.2383 3.4414,-7.6797 7.6797,-7.6797 h 79.039 c 4.2383,0 7.6797,3.4414 7.6797,7.6797 v 79.039 c 0.0156,4.2383 -3.4258,7.6797 -7.6641,7.6797 z m -71.359,-15.363 h 63.68 v -63.68 h -63.68 z"
       fill-rule="evenodd"
       id="path12392"
       style="fill:#636363;fill-opacity:1" />
    <path
       d="m 518.4,312.21 h -79.039 c -4.2383,0 -7.6797,-3.4414 -7.6797,-7.6797 v -79.039 c 0,-4.2383 3.4414,-7.6797 7.6797,-7.6797 H 518.4 c 4.2383,0 7.6797,3.4414 7.6797,7.6797 v 79.039 c -0.0117,4.2383 -3.4375,7.6797 -7.6797,7.6797 z m -71.371,-15.363 h 63.68 v -63.68 h -63.68 z"
       fill-rule="evenodd"
       id="path12394"
       style="fill:#636363;fill-opacity:1" />
    <path
       d="m 151.79,479.23 c -26.027,0 -47.199,-21.172 -47.199,-47.199 0,-26.027 21.172,-47.199 47.199,-47.199 26.027,0 47.199,21.172 47.199,47.199 0.004,26.027 -21.172,47.199 -47.199,47.199 z m 0,-79.055 c -17.559,0 -31.84,14.281 -31.84,31.84 0,17.559 14.281,31.84 31.84,31.84 17.559,0 31.84,-14.281 31.84,-31.84 0,-17.547 -14.277,-31.84 -31.84,-31.84 z"
       fill-rule="evenodd"
       id="path12396"
       style="fill:#636363;fill-opacity:1" />
    <path
       d="m 416.54,479.23 c -26.027,0 -47.199,-21.172 -47.199,-47.199 0,-26.027 21.172,-47.199 47.199,-47.199 26.027,0 47.199,21.172 47.199,47.199 0,26.027 -21.176,47.199 -47.199,47.199 z m 0,-79.055 c -17.559,0 -31.84,14.281 -31.84,31.84 0,17.559 14.281,31.84 31.84,31.84 17.559,0 31.84,-14.281 31.84,-31.84 0,-17.547 -14.281,-31.84 -31.84,-31.84 z"
       fill-rule="evenodd"
       id="path12398"
       style="fill:#636363;fill-opacity:1" />
    <path
       d="m 284.16,479.23 c -26.027,0 -47.199,-21.172 -47.199,-47.199 0,-26.027 21.172,-47.199 47.199,-47.199 26.027,0 47.199,21.172 47.199,47.199 0,26.027 -21.172,47.199 -47.199,47.199 z m 0,-79.055 c -17.559,0 -31.84,14.281 -31.84,31.84 0,17.559 14.281,31.84 31.84,31.84 17.559,0 31.84,-14.281 31.84,-31.84 0,-17.547 -14.281,-31.84 -31.84,-31.84 z"
       fill-rule="evenodd"
       id="path12400"
       style="fill:#636363;fill-opacity:1" />
    <path
       d="m 548.91,479.23 c -26.027,0 -47.199,-21.172 -47.199,-47.199 0,-26.027 21.172,-47.199 47.199,-47.199 26.027,0 47.199,21.172 47.199,47.199 0,26.027 -21.172,47.199 -47.199,47.199 z m 0,-79.055 c -17.559,0 -31.84,14.281 -31.84,31.84 0,17.559 14.281,31.84 31.84,31.84 17.559,0 31.84,-14.281 31.84,-31.84 0,-17.547 -14.281,-31.84 -31.84,-31.84 z"
       fill-rule="evenodd"
       id="path12402"
       style="fill:#636363;fill-opacity:1" />
    <path
       d="M 438.19,272.61 H 262.6 c -4.2383,0 -7.6797,-3.4414 -7.6797,-7.6797 0,-4.2383 3.4414,-7.6797 7.6797,-7.6797 h 175.59 c 4.2383,0 7.6797,3.4414 7.6797,7.6797 0,4.2383 -3.4414,7.6797 -7.6797,7.6797 z"
       fill-rule="evenodd"
       id="path12404"
       style="fill:#636363;fill-opacity:1" />
    <path
       d="m 350.35,272.12 c -4.2383,0 -7.6797,-3.3984 -7.6797,-7.6133 v -88.133 c 0,-4.1992 3.4414,-7.6133 7.6797,-7.6133 4.2383,0 7.6797,3.3984 7.6797,7.6133 v 88.133 c 0,4.1992 -3.4414,7.6133 -7.6797,7.6133 z"
       fill-rule="evenodd"
       id="path12406"
       style="fill:#636363;fill-opacity:1" />
    <path
       d="m 284.27,399.6 c -4.2383,0 -7.6797,-3.4414 -7.6797,-7.6797 v -32.055 h -54.922 c -4.2383,0 -7.6797,-3.4414 -7.6797,-7.6797 v -46.746 c 0,-4.2383 3.4414,-7.6797 7.6797,-7.6797 4.2383,0 7.6797,3.4414 7.6797,7.6797 v 39.066 h 54.922 c 4.2383,0 7.6797,3.4414 7.6797,7.6797 v 39.719 c 0,4.2539 -3.4375,7.6953 -7.6797,7.6953 z"
       fill-rule="evenodd"
       id="path12408"
       style="fill:#636363;fill-opacity:1" />
    <path
       d="m 151.79,399.35 c -4.2383,0 -7.6797,-3.4414 -7.6797,-7.6797 v -39.48 c 0,-4.2383 3.4414,-7.6797 7.6797,-7.6797 h 69.879 c 4.2383,0 7.6797,3.4414 7.6797,7.6797 0,4.2383 -3.4414,7.6797 -7.6797,7.6797 H 159.47 v 31.801 c 0,4.2383 -3.4375,7.6797 -7.6797,7.6797 z"
       fill-rule="evenodd"
       id="path12410"
       style="fill:#636363;fill-opacity:1" />
    <path
       d="m 416.43,399.27 c -4.2383,0 -7.6797,-3.4414 -7.6797,-7.6797 v -40.652 c 0,-4.2383 3.4414,-7.6797 7.6797,-7.6797 h 54.613 v -38.266 c 0,-4.2383 3.4414,-7.6797 7.6797,-7.6797 4.2383,0 7.6797,3.4414 7.6797,7.6797 v 45.945 c 0,4.2383 -3.4414,7.6797 -7.6797,7.6797 h -54.613 v 32.973 c 0,4.2422 -3.4375,7.6797 -7.6797,7.6797 z"
       fill-rule="evenodd"
       id="path12412"
       style="fill:#636363;fill-opacity:1" />
    <path
       d="m 548.91,399.56 c -4.2383,0 -7.6797,-3.4414 -7.6797,-7.6797 v -33.266 h -62.508 c -4.2383,0 -7.6797,-3.4414 -7.6797,-7.6797 0,-4.2383 3.4414,-7.6797 7.6797,-7.6797 h 70.188 c 4.2383,0 7.6797,3.4414 7.6797,7.6797 v 40.945 c 0,4.2422 -3.4375,7.6797 -7.6797,7.6797 z"
       fill-rule="evenodd"
       id="path12414"
       style="fill:#636363;fill-opacity:1" />
  </g>
</svg>
