<?xml version="1.0" encoding="UTF-8" standalone="no"?>
<svg
   width="585.85925pt"
   height="552.65204pt"
   version="1.1"
   viewBox="0 0 585.85925 552.65204"
   id="svg17322"
   sodipodi:docname="_relationship-spacial.svg"
   inkscape:version="1.2.2 (732a01da63, 2022-12-09)"
   inkscape:export-filename="_relationship-spacial.webp"
   inkscape:export-xdpi="96"
   inkscape:export-ydpi="96"
   xmlns:inkscape="http://www.inkscape.org/namespaces/inkscape"
   xmlns:sodipodi="http://sodipodi.sourceforge.net/DTD/sodipodi-0.dtd"
   xmlns="http://www.w3.org/2000/svg"
   xmlns:svg="http://www.w3.org/2000/svg">
  <defs
     id="defs17326" />
  <sodipodi:namedview
     id="namedview17324"
     pagecolor="#ffffff"
     bordercolor="#000000"
     borderopacity="0.25"
     inkscape:showpageshadow="2"
     inkscape:pageopacity="0.0"
     inkscape:pagecheckerboard="0"
     inkscape:deskcolor="#d1d1d1"
     inkscape:document-units="pt"
     showgrid="false"
     inkscape:zoom="0.5625"
     inkscape:cx="24.888889"
     inkscape:cy="325.33333"
     inkscape:window-width="1366"
     inkscape:window-height="705"
     inkscape:window-x="-8"
     inkscape:window-y="-8"
     inkscape:window-maximized="1"
     inkscape:current-layer="svg17322" />
  <g
     id="g17320"
     style="fill:#31a354;fill-opacity:1"
     transform="translate(-57.07202,0.009)">
    <path
       d="m 556.77,216.86 72.492,72.492 c 6.7266,6.7266 6.7266,17.637 0,24.367 -6.7305,6.7305 -17.641,6.7305 -24.367,0 L 556.77,265.594 v 96.25 c 0,9.5156 -7.7148,17.23 -17.23,17.23 -9.5156,0 -17.23,-7.7148 -17.23,-17.23 v -96.25 l -48.125,48.125 c -6.7305,6.7305 -17.637,6.7305 -24.367,0 -6.7305,-6.7305 -6.7305,-17.641 0,-24.367 L 522.31,216.86 v -54.648 l -39.508,39.508 c -6.7305,6.7305 -17.641,6.7305 -24.371,0 -6.7266,-6.7305 -6.7266,-17.641 0,-24.367 L 522.31,113.474 V 58.826 l -22.277,22.277 c -6.7305,6.7305 -17.641,6.7305 -24.367,0 -6.7305,-6.7266 -6.7305,-17.637 0,-24.367 L 527.357,5.045 c 6.7266,-6.7305 17.637,-6.7305 24.367,0 l 51.691,51.691 c 6.7305,6.7305 6.7305,17.641 0,24.367 -6.7266,6.7305 -17.637,6.7305 -24.367,0 L 556.771,58.826 v 54.648 l 63.875,63.879 c 6.7305,6.7266 6.7305,17.637 0,24.367 -6.7266,6.7305 -17.637,6.7305 -24.367,0 l -39.508,-39.508 z m -394.83,24.367 -27.324,-27.324 -48.125,48.125 c -6.7305,6.7266 -17.641,6.7266 -24.367,0 -6.7305,-6.7305 -6.7305,-17.641 0,-24.367 l 60.305,-60.309 c 6.7305,-6.7305 17.641,-6.7305 24.371,0 l 39.508,39.508 39.508,-39.508 c 6.7305,-6.7305 17.637,-6.7305 24.367,0 l 146.46,146.46 c 6.7305,6.7305 6.7305,17.637 0,24.367 -6.7266,6.7305 -17.637,6.7305 -24.367,0 l -134.28,-134.28 -99.816,99.816 c -6.7305,6.7305 -17.637,6.7305 -24.367,0 -6.7305,-6.7305 -6.7305,-17.641 0,-24.367 z m -78.383,195.46 c -8.0273,5.1094 -18.68,2.7422 -23.789,-5.2852 -5.1094,-8.0312 -2.7422,-18.68 5.2891,-23.789 6.457,-4.1094 18.227,-9.7695 35.223,-15.262 65.691,-21.223 151.14,-21.223 255.17,13.453 97,32.332 174.92,32.332 233.68,13.352 8.3203,-2.6875 15.402,-5.5391 21.242,-8.3477 3.293,-1.582 5.3203,-2.7188 6.0742,-3.1953 8.0273,-5.1094 18.68,-2.7422 23.789,5.2852 5.109,8.0274 2.7422,18.68 -5.2891,23.789 -6.457,4.1094 -18.227,9.7695 -35.223,15.262 -65.691,21.223 -151.14,21.223 -255.17,-13.453 -97,-32.332 -174.92,-32.332 -233.68,-13.352 -8.3203,2.6875 -15.402,5.5391 -21.242,8.3477 -3.293,1.582 -5.3203,2.7148 -6.0742,3.1953 z m 0,86.152 c -8.0273,5.1094 -18.68,2.7422 -23.789,-5.2852 -5.109,-8.0274 -2.7422,-18.68 5.2891,-23.789 6.457,-4.1094 18.227,-9.7695 35.223,-15.262 65.691,-21.223 151.14,-21.223 255.17,13.453 97,32.332 174.92,32.332 233.68,13.352 8.3203,-2.6875 15.402,-5.5391 21.242,-8.3438 3.293,-1.5859 5.3203,-2.7188 6.0742,-3.1992 8.0273,-5.1094 18.68,-2.7422 23.789,5.2891 5.1094,8.0273 2.7422,18.676 -5.2891,23.785 -6.457,4.1133 -18.227,9.7695 -35.223,15.262 -65.691,21.223 -151.14,21.223 -255.17,-13.453 -97,-32.332 -174.92,-32.332 -233.68,-13.352 -8.3203,2.6875 -15.402,5.5391 -21.242,8.3477 -3.293,1.582 -5.3203,2.7188 -6.0742,3.1953 z m 85.52,-402.23 c -33.309,0 -60.309,-27.004 -60.309,-60.309 0,-33.309 27,-60.309 60.309,-60.309 33.305,0 60.305,27 60.305,60.309 0,33.305 -27,60.309 -60.305,60.309 z m 0,-34.465 c 14.273,0 25.844,-11.57 25.844,-25.844 0,-14.273 -11.57,-25.848 -25.844,-25.848 -14.277,0 -25.848,11.574 -25.848,25.848 0,14.273 11.57,25.844 25.848,25.844 z"
       id="path17318"
       style="fill:#31a354;fill-opacity:1" />
  </g>
</svg>
