<?xml version="1.0" encoding="UTF-8" standalone="no"?>
<svg
   width="506.74109pt"
   height="484.50793pt"
   version="1.1"
   viewBox="0 0 506.74109 484.50793"
   id="svg22884"
   sodipodi:docname="_relationship-instrumental.svg"
   inkscape:version="1.2.2 (732a01da63, 2022-12-09)"
   inkscape:export-filename="_relationship-instrumental.webp"
   inkscape:export-xdpi="96"
   inkscape:export-ydpi="96"
   xmlns:inkscape="http://www.inkscape.org/namespaces/inkscape"
   xmlns:sodipodi="http://sodipodi.sourceforge.net/DTD/sodipodi-0.dtd"
   xmlns="http://www.w3.org/2000/svg"
   xmlns:svg="http://www.w3.org/2000/svg">
  <defs
     id="defs22888" />
  <sodipodi:namedview
     id="namedview22886"
     pagecolor="#ffffff"
     bordercolor="#000000"
     borderopacity="0.25"
     inkscape:showpageshadow="2"
     inkscape:pageopacity="0.0"
     inkscape:pagecheckerboard="0"
     inkscape:deskcolor="#d1d1d1"
     inkscape:document-units="pt"
     showgrid="false"
     inkscape:zoom="0.5625"
     inkscape:cx="-26.666667"
     inkscape:cy="401.77778"
     inkscape:window-width="1366"
     inkscape:window-height="705"
     inkscape:window-x="-8"
     inkscape:window-y="-8"
     inkscape:window-maximized="1"
     inkscape:current-layer="svg22884" />
  <g
     id="g22882"
     transform="translate(-96.631864,-49.262455)"
     style="fill:#3182bd;fill-opacity:1">
    <path
       d="m 415.36,385 c 1.6562,-1.6445 2.5859,-3.8789 2.5859,-6.2109 0,-2.3359 -0.92969,-4.5703 -2.5859,-6.2148 l -15.836,-15.836 h -0.004 c -1.6406,-1.6562 -3.8789,-2.5898 -6.2109,-2.5898 -2.332,0 -4.5703,0.93359 -6.2109,2.5898 l -9.1875,8.75 c -2.5859,-1.2461 -5.2461,-2.3242 -7.9648,-3.2383 V 350 c 0,-2.3203 -0.92188,-4.5469 -2.5625,-6.1875 -1.64062,-1.6406 -3.8672,-2.5625 -6.1875,-2.5625 h -22.398 c -4.832,0 -8.75,3.918 -8.75,8.75 v 13.125 c -2.7188,0.91406 -5.3789,1.9922 -7.9648,3.2383 -5.6875,-4.9883 -13.039,-17.5 -21.613,-8.75 l -15.836,15.836 c -1.6562,1.6445 -2.5859,3.8789 -2.5859,6.2148 0,2.332 0.92969,4.5664 2.5859,6.2109 l 8.75,8.75 c -1.2578,2.5781 -2.3398,5.2383 -3.2383,7.9609 h -13.125 c -4.832,0 -8.75,3.918 -8.75,8.75 v 22.402 c 0,2.3203 0.92187,4.5469 2.5625,6.1875 1.6445,1.6406 3.8672,2.5625 6.1875,2.5625 h 13.125 c 0.91406,2.7188 1.9961,5.3789 3.2383,7.9609 l -8.75,8.75 c -1.6562,1.6445 -2.5859,3.8789 -2.5859,6.2148 0,2.332 0.92969,4.5664 2.5859,6.2109 l 15.836,15.836 c 8.75,7.9609 15.926,-4.1133 21.613,-9.1875 2.5859,1.2461 5.2461,2.3281 7.9648,3.2383 v 13.039 c 0,2.3203 0.92188,4.5469 2.5625,6.1875 1.64062,1.6406 3.8672,2.5625 6.1875,2.5625 h 22.398 c 2.3203,0 4.5469,-0.92188 6.1875,-2.5625 1.6406,-1.64062 2.5625,-3.8672 2.5625,-6.1875 v -13.301 c 2.7188,-0.91406 5.3789,-1.9922 7.9648,-3.2383 5.6875,4.9883 13.039,17.5 21.613,9.1875 l 15.836,-15.836 c 1.6562,-1.6445 2.5859,-3.8789 2.5859,-6.2148 0,-2.332 -0.92969,-4.5664 -2.5859,-6.2109 l -8.75,-8.75 c 1.2422,-2.5859 2.3242,-5.2422 3.2383,-7.9609 h 13.125 c 2.3203,0 4.543,-0.92187 6.1875,-2.5625 1.6406,-1.6445 2.5625,-3.8672 2.5625,-6.1875 v -22.227 c 0,-2.3203 -0.92187,-4.5469 -2.5625,-6.1875 -1.6445,-1.6406 -3.8672,-2.5625 -6.1875,-2.5625 h -13.125 c -0.89844,-2.7227 -1.9805,-5.3867 -3.2383,-7.9609 z m -1.5742,39.551 h -11.812 c -3.8086,0.32812 -6.9609,3.0938 -7.7891,6.8242 0,8.75 -12.25,17.5 -5.0742,26.25 l 7.6992,7.6992 -3.5,3.5 -7.6992,-7.6992 c -8.75,-7.1758 -17.5,4.7266 -26.25,5.0742 -3.7344,0.82812 -6.4961,3.9805 -6.8242,7.7891 v 0.78906 10.938 h -4.8984 l -0.004,-10.852 c -0.96094,-11.113 -15.398,-8.75 -22.137,-14.789 -3.207,-2.0703 -7.3867,-1.8203 -10.324,0.61328 0,0 -8.2266,8.1367 -8.75,8.2266 l -3.5,-3.5 7.6992,-7.6992 c 7.1758,-8.75 -4.7266,-17.5 -5.0742,-26.25 v -0.004 c -0.82812,-3.7305 -3.9805,-6.4922 -7.7891,-6.8242 h -11.812 v -4.6367 c 4.7383,0.25781 9.4883,0.0234 14.176,-0.69922 2.6523,-1.1914 4.6406,-3.5 5.4258,-6.3008 0,-8.75 12.25,-17.5 5.0742,-26.25 l -7.6992,-7.6992 3.5,-3.5 7.6992,7.6992 c 8.75,7.4375 17.5,-4.8125 26.25,-5.1641 3.7031,-0.81641 6.457,-3.9258 6.8242,-7.6992 v -11.812 h 4.8984 v 11.812 h 0.004 c 0.36328,3.7734 3.1211,6.8828 6.8242,7.6992 8.75,0 17.5,12.602 26.25,5.1641 l 7.6992,-7.6992 3.5,3.5 -7.6992,7.6992 c -7.1758,8.75 4.7266,17.062 5.0742,26.25 0.78516,2.8008 2.7695,5.1094 5.4258,6.3008 4.6875,0.72266 9.4375,0.95703 14.176,0.69922 z"
       id="path22864"
       style="fill:#3182bd;fill-opacity:1" />
    <path
       d="m 221.2,206.32 c -3.4102,-3.3906 -8.9258,-3.3906 -12.336,0 l -74.637,74.637 c -2.9766,3.4727 -2.7734,8.6484 0.45703,11.879 3.2305,3.2344 8.4062,3.4336 11.879,0.46094 l 74.637,-74.551 c 1.6562,-1.6445 2.5898,-3.8789 2.5898,-6.2109 0,-2.3359 -0.93359,-4.5703 -2.5898,-6.2148 z"
       id="path22866"
       style="fill:#3182bd;fill-opacity:1" />
    <path
       d="m 195.12,207.11 c 3.4062,-3.4336 3.3867,-8.9766 -0.043,-12.383 -3.4336,-3.4062 -8.9766,-3.3867 -12.383,0.043 l -60.199,60.027 c -3.4297,3.4297 -3.4297,8.9922 0,12.426 3.4297,3.4297 8.9922,3.4297 12.426,0 z"
       id="path22868"
       style="fill:#3182bd;fill-opacity:1" />
    <path
       d="m 482.65,239.23 c -4.9062,-4.8125 -11.504,-7.5039 -18.375,-7.5039 -6.8711,0 -13.465,2.6914 -18.375,7.5039 l -17.938,18.023 -0.61328,-4.2891 h 0.004 c 0.16797,-0.57031 0.16797,-1.1758 0,-1.75 l -16.102,-104.65 c 0,0 -0.61328,-4.8984 -0.78906,-4.9883 -14.523,-71.574 -117.77,-65.098 -123.2,7.1758 l -16.973,106.66 -16.539,-16.277 c -4.9062,-4.8086 -11.504,-7.5039 -18.375,-7.5039 -6.871,0 -13.469,2.6953 -18.375,7.5039 l -49.875,50.312 c -4.8086,4.9062 -7.5039,11.504 -7.5039,18.375 0,6.8711 2.6953,13.469 7.5039,18.375 l 73.586,73.5 c -6.7344,32.859 1.6602,67.008 22.863,93 21.203,25.992 52.969,41.074 86.512,41.074 33.547,0 65.312,-15.082 86.516,-41.074 21.203,-25.992 29.598,-60.141 22.859,-93 l 73.586,-73.5 h 0.004 c 4.8086,-4.9062 7.5039,-11.504 7.5039,-18.375 0,-6.8711 -2.6953,-13.469 -7.5039,-18.375 z M 317.63,121.28 c 42.961,-40.512 103.69,20.211 63.176,63.176 -42.965,40.512 -103.6,-20.125 -63.176,-63.176 z m -24.676,102.99 c 7.5234,0.875 19.602,5.6875 21.789,-5.4258 0.37891,-2.2969 -0.17578,-4.6523 -1.5391,-6.5391 -1.3633,-1.8906 -3.4219,-3.1562 -5.7227,-3.5234 l -11.727,-1.8359 2.8867,-18.023 c 11.727,16.273 30.562,25.918 50.621,25.918 20.059,0 38.891,-9.6445 50.617,-25.918 l 8.75,57.137 -11.375,1.6641 v -0.004 c -2.3203,0.17578 -4.4766,1.2656 -5.9961,3.0273 -1.5156,1.7656 -2.2734,4.0586 -2.0977,6.3789 0.36328,4.8359 4.5742,8.457 9.4062,8.0938 0,0 12.164,-1.6641 12.688,-1.8359 l 1.4883,9.2734 -40.25,40.25 c -14.777,-3.0625 -30.023,-3.0625 -44.801,0 l -42,-42.086 z m -113.75,89.512 c -3.1133,-3.3555 -3.1133,-8.543 0,-11.898 l 50.312,-50.398 c 3.3555,-3.1133 8.543,-3.1133 11.902,0 l 66.938,66.938 c -28.355,11.383 -50.832,33.855 -62.215,62.211 z m 170.8,202.48 c -24.957,-0.0469 -48.875,-9.9805 -66.523,-27.629 -17.645,-17.645 -27.582,-41.566 -27.625,-66.52 5.1602,-124.6 183.14,-124.6 188.3,0 -0.043,24.953 -9.9805,48.875 -27.625,66.52 -17.648,17.648 -41.566,27.582 -66.523,27.629 z m 170.54,-202.48 -66.938,66.938 c -11.383,-28.355 -33.859,-50.828 -62.215,-62.211 l 66.938,-66.938 c 3.3555,-3.1133 8.543,-3.1133 11.902,0 l 50.398,50.312 c 3.0898,3.3789 3.0508,8.5664 -0.0859,11.898 z"
       id="path22870"
       style="fill:#3182bd;fill-opacity:1" />
    <path
       d="m 491.14,206.32 c -3.4297,-3.4062 -8.9727,-3.3867 -12.379,0.043 -3.4102,3.4336 -3.3906,8.9766 0.043,12.383 l 74.637,74.637 c 3.4727,2.9727 8.6484,2.7734 11.879,-0.45703 3.2305,-3.2344 3.4336,-8.4062 0.45703,-11.879 z"
       id="path22872"
       style="fill:#3182bd;fill-opacity:1" />
    <path
       d="m 517.3,194.77 c -3.4062,-3.4297 -8.9492,-3.4492 -12.383,-0.043 -3.4297,3.4062 -3.4492,8.9492 -0.043,12.383 l 60.023,60.113 c 3.4336,3.4766 9.0352,3.5156 12.516,0.0859 3.4766,-3.4297 3.5156,-9.0312 0.0859,-12.512 z"
       id="path22874"
       style="fill:#3182bd;fill-opacity:1" />
    <path
       d="M 602.79,174.39 558.075,54.95 c -1.2812,-3.4297 -4.5625,-5.6992 -8.2227,-5.6875 h -399.7 c -3.6602,-0.01172 -6.9414,2.2578 -8.2227,5.6875 l -44.715,119.44 c -1.2461,3.2461 -0.45703,6.918 2.0156,9.3633 l 28.438,28.523 -17.5,17.5 c -3.4102,3.4336 -3.3906,8.9766 0.043,12.383 3.4297,3.4062 8.9727,3.3867 12.379,-0.043 l 46.637,-46.637 h 0.004 c 2.9766,-3.3477 2.9453,-8.4023 -0.0703,-11.711 -3.0195,-3.3125 -8.0508,-3.8086 -11.656,-1.1523 l -17.5,17.5 -24.414,-25.113 40.602,-108.239999 h 387.62 l 40.602,108.239999 -24.414,24.762 -17.5,-17.5 c -3.4297,-3.4062 -8.9727,-3.3867 -12.383,0.043 -3.4062,3.4336 -3.3867,8.9766 0.0469,12.383 l 47.336,46.988 c 3.4062,3.4297 8.9492,3.4492 12.383,0.043 3.4297,-3.4062 3.4492,-8.9492 0.043,-12.383 l -17.5,-17.5 28.348,-28.086 c 2.4727,-2.4453 3.2617,-6.1172 2.0156,-9.3633 z"
       id="path22876"
       style="fill:#3182bd;fill-opacity:1" />
    <path
       d="m 350,178.06 c 6.6055,-0.17969 12.879,-2.9336 17.488,-7.668 4.6055,-4.7344 7.1875,-11.082 7.1875,-17.688 0.004,-6.6094 -2.5703,-12.957 -7.1758,-17.695 -4.8555,-4.5 -11.23,-7.0039 -17.852,-7.0039 -6.6172,0 -12.996,2.5039 -17.848,7.0039 -4.6562,4.7969 -7.2344,11.238 -7.168,17.926 0.0664,6.6836 2.7656,13.074 7.5156,17.777 4.75,4.707 11.164,7.3477 17.852,7.3477 z m -5.4258,-30.625 c 3.0039,-2.9805 7.8477,-2.9805 10.852,0 2.2148,2.1992 2.8828,5.5156 1.6953,8.3984 -1.1914,2.8828 -4,4.7656 -7.1211,4.7656 -3.1211,0 -5.9297,-1.8828 -7.1211,-4.7656 -1.1875,-2.8828 -0.51953,-6.1992 1.6953,-8.3984 z"
       id="path22878"
       style="fill:#3182bd;fill-opacity:1" />
    <path
       d="m 367.5,403.46 c -6.5664,-4.8906 -15.102,-6.2891 -22.887,-3.7461 -7.7852,2.5469 -13.848,8.7148 -16.258,16.543 -2.4062,7.8281 -0.86328,16.336 4.1445,22.816 6.5664,4.8945 15.102,6.293 22.887,3.7461 7.7852,-2.543 13.848,-8.7109 16.258,-16.539 2.4062,-7.8281 0.86328,-16.336 -4.1445,-22.82 z m -12.426,23.273 v 0.004 c -2.207,2.1875 -5.5117,2.832 -8.3828,1.6367 -2.8672,-1.1953 -4.7383,-4 -4.7383,-7.1055 0,-3.1094 1.8711,-5.9141 4.7383,-7.1094 2.8711,-1.1953 6.1758,-0.54688 8.3828,1.6406 1.5078,1.3984 2.3906,3.3398 2.457,5.3945 0.0664,2.0547 -0.69141,4.0508 -2.1055,5.543 z"
       id="path22880"
       style="fill:#3182bd;fill-opacity:1" />
  </g>
</svg>
