<?xml version="1.0" encoding="UTF-8" standalone="no"?>
<svg
   width="530.76093pt"
   height="531.11151pt"
   version="1.1"
   viewBox="0 0 530.76093 531.11151"
   id="svg11053"
   sodipodi:docname="_relationship-temporal.svg"
   inkscape:version="1.2.2 (732a01da63, 2022-12-09)"
   inkscape:export-filename="_relationship-temporal.webp"
   inkscape:export-xdpi="96"
   inkscape:export-ydpi="96"
   xmlns:inkscape="http://www.inkscape.org/namespaces/inkscape"
   xmlns:sodipodi="http://sodipodi.sourceforge.net/DTD/sodipodi-0.dtd"
   xmlns="http://www.w3.org/2000/svg"
   xmlns:svg="http://www.w3.org/2000/svg">
  <defs
     id="defs11057" />
  <sodipodi:namedview
     id="namedview11055"
     pagecolor="#ffffff"
     bordercolor="#000000"
     borderopacity="0.25"
     inkscape:showpageshadow="2"
     inkscape:pageopacity="0.0"
     inkscape:pagecheckerboard="0"
     inkscape:deskcolor="#d1d1d1"
     inkscape:document-units="pt"
     showgrid="false"
     inkscape:zoom="0.5625"
     inkscape:cx="-12.444444"
     inkscape:cy="448"
     inkscape:window-width="1366"
     inkscape:window-height="705"
     inkscape:window-x="-8"
     inkscape:window-y="-8"
     inkscape:window-maximized="1"
     inkscape:current-layer="svg11053" />
  <g
     id="g11051"
     transform="translate(-84.749,-14.7344)"
     style="fill:#e6550d;fill-opacity:1">
    <path
       d="M 585.79,349.71 V 89.6 c 0,-12.039 -4.7812,-23.586 -13.293,-32.098 -8.5117,-8.5117 -20.059,-13.293 -32.098,-13.293 H 497.368 V 29.471 c 0,-5.2656 -2.8086,-10.129 -7.3672,-12.762 -4.5586,-2.6328 -10.176,-2.6328 -14.738,0 -4.5586,2.6328 -7.3672,7.4961 -7.3672,12.762 v 14.738 h -117.89 V 29.471 c 0,-5.2656 -2.8086,-10.129 -7.3672,-12.762 -4.5625,-2.6328 -10.18,-2.6328 -14.738,0 -4.5586,2.6328 -7.3672,7.4961 -7.3672,12.762 v 14.738 h -117.89 V 29.471 c 0,-5.2656 -2.8086,-10.129 -7.3711,-12.762 -4.5586,-2.6328 -10.176,-2.6328 -14.734,0 -4.5625,2.6328 -7.3711,7.4961 -7.3711,12.762 v 14.738 h -43.031 c -12.035,0 -23.582,4.7812 -32.094,13.293 C 89.5303,66.0137 84.749,77.561 84.749,89.6 v 321.85 c 0,12.039 4.7812,23.582 13.293,32.094 8.5118,8.512 20.059,13.297 32.094,13.297 h 253.18 c 8.8672,35.078 33.352,64.145 66.414,78.84 33.062,14.699 71.043,13.398 103.02,-3.5234 31.98,-16.922 54.422,-47.594 60.871,-83.195 6.4492,-35.602 -3.8086,-72.195 -27.824,-99.258 z M 130.13,73.69 h 43.031 v 14.738 c 0,5.2656 2.8086,10.129 7.3711,12.762 4.5586,2.6328 10.176,2.6328 14.734,0 4.5625,-2.6328 7.3711,-7.4961 7.3711,-12.762 V 73.69 h 117.89 v 14.738 c 0,5.2656 2.8086,10.129 7.3672,12.762 4.5586,2.6328 10.176,2.6328 14.738,0 4.5586,-2.6328 7.3672,-7.4961 7.3672,-12.762 V 73.69 h 117.89 v 14.738 c 0,5.2656 2.8086,10.129 7.3672,12.762 4.5625,2.6328 10.18,2.6328 14.738,0 4.5586,-2.6328 7.3672,-7.4961 7.3672,-12.762 V 73.69 h 43.031 c 4.2227,0 8.2695,1.6758 11.254,4.6641 2.9883,2.9844 4.6641,7.0312 4.6641,11.254 v 43.031 h -442.11 v -43.031 c 0,-4.2227 1.6758,-8.2695 4.6602,-11.254 2.9844,-2.9883 7.0352,-4.6641 11.254,-4.6641 z m 0,353.68 c -4.2188,0 -8.2695,-1.6758 -11.254,-4.6602 -2.9845,-2.9844 -4.6602,-7.0352 -4.6602,-11.254 v -249.35 h 442.11 v 163.29 c -36.457,-21.051 -81.375,-21.062 -117.84,-0.0312 -36.465,21.03075 -58.957,59.91 -59,102.01 z m 367.24,88.422 c -23.449,0 -45.941,-9.3164 -62.523,-25.898 -16.582,-16.5816 -25.895,-39.07 -25.895,-62.523 0,-23.449 9.3125,-45.941 25.895,-62.523 16.5825,-16.582 39.074,-25.895 62.523,-25.895 23.453,0 45.941,9.3125 62.523,25.895 16.582,16.5825 25.898,39.074 25.898,62.523 0,23.453 -9.3164,45.941 -25.898,62.523 -16.5816,16.582 -39.07,25.898 -62.523,25.898 z"
       id="path11037"
       style="fill:#e6550d;fill-opacity:1" />
    <path
       d="m 512.11,421.33 v -52.906 c 0,-5.2656 -2.8086,-10.129 -7.3672,-12.762 -4.5625,-2.6328 -10.18,-2.6328 -14.738,0 -4.5586,2.6328 -7.3672,7.4961 -7.3672,12.762 v 58.949 -0.004 c -0.0234,3.918 1.5156,7.6836 4.2734,10.465 l 29.473,29.473 c 2.7656,2.7891 6.5352,4.3594 10.465,4.3594 3.9298,0 7.6953,-1.5703 10.461,-4.3594 2.7891,-2.7656 4.3594,-6.5312 4.3594,-10.461 0,-3.9298 -1.5703,-7.6992 -4.3594,-10.465 z"
       id="path11039"
       style="fill:#e6550d;fill-opacity:1" />
    <path
       d="m 223.41,191.58 h -41.559 c -6.2148,0 -12.172,2.4688 -16.566,6.8633 -4.3945,4.3945 -6.8633,10.355 -6.8633,16.57 v 41.559 c 0,6.2109 2.4688,12.172 6.8633,16.566 4.3945,4.3945 10.352,6.8633 16.566,6.8633 h 41.559 c 6.2148,0 12.176,-2.4688 16.57,-6.8633 4.394,-4.3945 6.8633,-10.355 6.8633,-16.566 v -41.559 c 0,-6.2148 -2.4688,-12.176 -6.8633,-16.57 -4.3945,-4.3945 -10.355,-6.8633 -16.57,-6.8633 z m -6.043,58.949 h -29.473 v -29.477 h 29.473 z"
       id="path11041"
       style="fill:#e6550d;fill-opacity:1" />
    <path
       d="m 223.41,309.47 h -41.559 c -6.2148,0 -12.172,2.4688 -16.566,6.8633 -4.3945,4.3945 -6.8633,10.355 -6.8633,16.57 v 41.559 c 0,6.2109 2.4688,12.172 6.8633,16.566 4.3945,4.3945 10.352,6.8633 16.566,6.8633 h 41.559 c 6.2148,0 12.176,-2.4688 16.57,-6.8633 4.394,-4.3945 6.8633,-10.355 6.8633,-16.566 v -41.559 c 0,-6.2148 -2.4688,-12.176 -6.8633,-16.57 -4.3945,-4.3945 -10.355,-6.8633 -16.57,-6.8633 z m -6.043,58.949 h -29.473 v -29.473 h 29.473 z"
       id="path11043"
       style="fill:#e6550d;fill-opacity:1" />
    <path
       d="m 356.04,191.58 h -41.559 c -6.2148,0 -12.176,2.4688 -16.57,6.8633 -4.3945,4.3945 -6.8633,10.355 -6.8633,16.57 v 41.559 c 0,6.2109 2.4688,12.172 6.8633,16.566 4.3945,4.3945 10.355,6.8633 16.57,6.8633 h 41.559 c 6.2148,0 12.172,-2.4688 16.566,-6.8633 4.394,-4.3945 6.8633,-10.355 6.8633,-16.566 v -41.559 c 0,-6.2148 -2.4688,-12.176 -6.8633,-16.57 -4.3945,-4.3945 -10.352,-6.8633 -16.566,-6.8633 z m -6.043,58.949 h -29.473 v -29.477 h 29.473 z"
       id="path11045"
       style="fill:#e6550d;fill-opacity:1" />
    <path
       d="m 356.04,309.47 h -41.559 c -6.2148,0 -12.176,2.4688 -16.57,6.8633 -4.3945,4.3945 -6.8633,10.355 -6.8633,16.57 v 41.559 c 0,6.2109 2.4688,12.172 6.8633,16.566 4.3945,4.3945 10.355,6.8633 16.57,6.8633 h 41.559 c 6.2148,0 12.172,-2.4688 16.566,-6.8633 4.394,-4.3945 6.8633,-10.355 6.8633,-16.566 v -41.559 c 0,-6.2148 -2.4688,-12.176 -6.8633,-16.57 -4.3945,-4.3945 -10.352,-6.8633 -16.566,-6.8633 z m -6.043,58.949 h -29.473 v -29.473 h 29.473 z"
       id="path11047"
       style="fill:#e6550d;fill-opacity:1" />
    <path
       d="m 447.12,280 h 41.559 -0.004 c 6.2148,0 12.176,-2.4688 16.57,-6.8633 4.3945,-4.3945 6.8633,-10.355 6.8633,-16.566 v -41.559 c 0,-6.2148 -2.4688,-12.176 -6.8633,-16.57 -4.3945,-4.3945 -10.355,-6.8633 -16.57,-6.8633 H 447.12 c -6.2148,0 -12.176,2.4688 -16.57,6.8633 -4.3945,4.3945 -6.8633,10.355 -6.8633,16.57 v 41.559 c 0,6.2109 2.4688,12.172 6.8633,16.566 4.3945,4.394 10.355,6.8633 16.57,6.8633 z m 6.0391,-58.949 h 29.473 v 29.473 l -29.473,0.004 z"
       id="path11049"
       style="fill:#e6550d;fill-opacity:1" />
  </g>
</svg>
