<?xml version="1.0" encoding="UTF-8" standalone="no"?>
<svg
   width="531.99799pt"
   height="480.75699pt"
   version="1.1"
   viewBox="0 0 531.99799 480.75699"
   id="svg25314"
   sodipodi:docname="_relationship-causative.svg"
   inkscape:version="1.2.2 (732a01da63, 2022-12-09)"
   inkscape:export-filename="_relationship-causative.webp"
   inkscape:export-xdpi="96"
   inkscape:export-ydpi="96"
   xmlns:inkscape="http://www.inkscape.org/namespaces/inkscape"
   xmlns:sodipodi="http://sodipodi.sourceforge.net/DTD/sodipodi-0.dtd"
   xmlns="http://www.w3.org/2000/svg"
   xmlns:svg="http://www.w3.org/2000/svg">
  <defs
     id="defs25318" />
  <sodipodi:namedview
     id="namedview25316"
     pagecolor="#ffffff"
     bordercolor="#000000"
     borderopacity="0.25"
     inkscape:showpageshadow="2"
     inkscape:pageopacity="0.0"
     inkscape:pagecheckerboard="0"
     inkscape:deskcolor="#d1d1d1"
     inkscape:document-units="pt"
     showgrid="false"
     inkscape:zoom="0.5625"
     inkscape:cx="-10.666667"
     inkscape:cy="414.22222"
     inkscape:window-width="1366"
     inkscape:window-height="705"
     inkscape:window-x="-8"
     inkscape:window-y="-8"
     inkscape:window-maximized="1"
     inkscape:current-layer="svg25314" />
  <g
     id="g25312"
     transform="translate(-84.001,-39.8995)"
     style="fill:#fdd0a2;fill-opacity:1">
    <path
       d="m 293.44,239.12 c -22.398,0 -40.879,18.48 -40.879,40.879 0,22.399 18.48,40.879 40.879,40.879 22.398,0 40.879,-18.48 40.879,-40.879 0,-22.399 -18.48,-40.879 -40.879,-40.879 z"
       id="path25296"
       style="fill:#fdd0a2;fill-opacity:1" />
    <path
       d="m 575.12,239.12 c -22.398,0 -40.879,18.48 -40.879,40.879 0,22.399 18.48,40.879 40.879,40.879 22.398,0 40.879,-18.48 40.879,-40.879 0,-22.399 -18.48,-40.879 -40.879,-40.879 z"
       id="path25298"
       style="fill:#fdd0a2;fill-opacity:1" />
    <path
       d="m 451.36,322.56 c 2.2383,2.2383 5.0391,3.3594 8.3984,3.3594 3.3594,0 6.1602,-1.1211 8.3984,-3.3594 l 34.719,-34.719 c 2.2383,-2.2383 3.3594,-5.0391 3.3594,-8.3984 0,-3.3593 -1.1211,-6.1602 -3.3594,-8.3984 l -34.719,-34.719 c -4.4805,-4.4805 -11.762,-4.4805 -16.238,0 -4.4805,4.4805 -4.4805,11.762 0,16.238 l 14.559,14.559 h -92.398 c -6.1602,0 -11.762,5.0391 -11.762,11.762 0,6.7188 5.0391,11.762 11.762,11.762 h 92.398 l -14.559,14.559 c -5.0391,5.5977 -5.0391,12.875 -0.55859,17.355 z"
       id="path25300"
       style="fill:#fdd0a2;fill-opacity:1" />
    <path
       d="m 190.4,237.44 c -4.4805,-4.4805 -11.762,-4.4805 -16.238,0 -4.4805,4.4805 -4.4805,11.762 0,16.238 l 15.121,14.559 h -93.52 c -6.7188,0 -11.762,5.0391 -11.762,11.762 0,6.7188 5.0391,11.762 11.762,11.762 h 92.961 l -15.121,14.559 c -4.4805,4.4805 -4.4805,11.762 0,16.238 2.2383,2.2383 5.0391,3.3594 8.3984,3.3594 3.3593,0 6.1602,-1.1211 8.3984,-3.3594 l 34.719,-34.719 c 2.2383,-2.2383 3.3594,-5.0391 3.3594,-8.3984 0,-3.3593 -1.1211,-6.1602 -3.3594,-8.3984 z"
       id="path25302"
       style="fill:#fdd0a2;fill-opacity:1" />
    <path
       d="m 463.68,450.24 c -16.238,16.238 -16.238,42 0,58.238 16.238,16.238 42,16.238 58.238,0 16.238,-16.238 16.238,-42 0,-58.238 -16.238,-16.238 -42.559,-16.238 -58.238,0 z"
       id="path25304"
       style="fill:#fdd0a2;fill-opacity:1" />
    <path
       d="m 435.68,361.76 c -6.1602,0 -11.762,5.0391 -11.762,11.762 v 20.719 l -64.957,-65.523 c -4.4805,-4.4805 -11.762,-4.4805 -16.238,0 -4.4805,4.4805 -4.4805,11.762 0,16.238 l 64.961,64.961 h -20.719 c -6.1602,0 -11.762,5.0391 -11.762,11.762 0,6.1602 5.0391,11.762 11.762,11.762 h 48.719 c 6.1602,0 11.762,-5.0391 11.762,-11.762 V 372.96 c -0.56641,-6.1602 -5.6055,-11.199 -11.766,-11.199 z"
       id="path25306"
       style="fill:#fdd0a2;fill-opacity:1" />
    <path
       d="m 463.68,52.078 c -16.238,16.238 -16.238,42 0,58.238 16.238,16.238 42,16.238 58.238,0 16.238,-16.238 16.238,-42 0,-58.238 -16.238,-16.238 -42.559,-16.238 -58.238,0 z"
       id="path25308"
       style="fill:#fdd0a2;fill-opacity:1" />
    <path
       d="m 350.56,234.64 c 2.8008,0 6.1602,-1.1211 8.3984,-3.3594 l 64.961,-64.961 v 20.719 c 0,6.1602 5.0391,11.762 11.762,11.762 6.7188,0 11.762,-5.0391 11.762,-11.762 v -48.719 c 0,-6.1602 -5.0391,-11.762 -11.762,-11.762 h -48.719 c -6.1602,0 -11.762,5.0391 -11.762,11.762 0,6.7188 5.0391,11.762 11.762,11.762 h 20.719 l -65.52,64.398 c -4.4805,4.4805 -4.4805,11.762 0,16.238 2.2383,2.8008 5.6016,3.9219 8.3984,3.9219 z"
       id="path25310"
       style="fill:#fdd0a2;fill-opacity:1" />
  </g>
</svg>
