<svg xmlns="http://www.w3.org/2000/svg" xmlns:xlink="http://www.w3.org/1999/xlink" version="1.1" x="0px" y="0px" viewBox="0 0 100 125" enable-background="new 0 0 100 100" xml:space="preserve"><path d="M51.741,34.187c7.523,0.836,6.688-7.642,6.688-7.642L55.322,27.5C49.592,29.769,51.741,34.187,51.741,34.187z"/><path d="M58.429,33.352l-3.106,0.955c-5.73,2.269-3.581,6.687-3.581,6.687C59.265,41.83,58.429,33.352,58.429,33.352z"/><path d="M58.429,40.427l-3.106,0.956c-5.73,2.269-3.581,6.687-3.581,6.687C59.265,48.905,58.429,40.427,58.429,40.427z"/><path d="M58.429,47.323l-3.106,0.956c-5.73,2.269-3.581,6.687-3.581,6.687C59.265,55.802,58.429,47.323,58.429,47.323z"/><path d="M49.912,34.187c0,0,2.149-4.418-3.582-6.687l-3.104-0.956C43.226,26.545,42.389,35.023,49.912,34.187z"/><path d="M49.912,40.994c0,0,2.149-4.418-3.582-6.687l-3.104-0.955C43.226,33.352,42.389,41.83,49.912,40.994z"/><path d="M49.912,48.069c0,0,2.149-4.417-3.582-6.687l-3.104-0.956C43.226,40.427,42.389,48.905,49.912,48.069z"/><path d="M49.912,54.965c0,0,2.149-4.417-3.582-6.687l-3.104-0.956C43.226,47.323,42.389,55.802,49.912,54.965z"/><path d="M50.72,28.373c0,0,4.088-1.668,1.613-6.627l-1.505-2.502C50.828,19.244,45.182,24.418,50.72,28.373z"/><rect x="53.621" y="6.215" width="1.28" height="13.971"/><rect x="56.576" y="11.051" width="1.28" height="13.971"/><rect x="50.068" y="55.921" width="1.279" height="42.209"/><rect x="50.068" y="3.08" width="1.279" height="13.972"/><rect x="46.751" y="6.215" width="1.28" height="13.971"/><rect x="43.845" y="11.051" width="1.28" height="13.971"/><path d="M78.185,59.916c7.525,0.837,6.689-7.642,6.689-7.642l-3.105,0.955C76.037,55.499,78.185,59.916,78.185,59.916z"/><path d="M84.874,59.08l-3.105,0.956c-5.731,2.269-3.584,6.687-3.584,6.687C85.71,67.56,84.874,59.08,84.874,59.08z"/><path d="M84.874,66.155l-3.105,0.956c-5.731,2.27-3.584,6.688-3.584,6.688C85.71,74.634,84.874,66.155,84.874,66.155z"/><path d="M84.874,73.052l-3.105,0.956c-5.731,2.269-3.584,6.687-3.584,6.687C85.71,81.53,84.874,73.052,84.874,73.052z"/><path d="M76.355,59.916c0,0,2.151-4.417-3.58-6.687l-3.105-0.955C69.67,52.274,68.835,60.753,76.355,59.916z"/><path d="M76.355,66.723c0,0,2.151-4.418-3.58-6.687L69.67,59.08C69.67,59.08,68.835,67.56,76.355,66.723z"/><path d="M76.355,73.799c0,0,2.151-4.418-3.58-6.688l-3.105-0.956C69.67,66.155,68.835,74.634,76.355,73.799z"/><path d="M76.355,80.694c0,0,2.151-4.418-3.58-6.687l-3.105-0.956C69.67,73.052,68.835,81.53,76.355,80.694z"/><path d="M77.166,54.103c0,0,4.089-1.669,1.612-6.627l-1.505-2.502C77.273,44.973,71.627,50.148,77.166,54.103z"/><rect x="80.065" y="31.944" width="1.28" height="13.971"/><rect x="83.021" y="36.78" width="1.279" height="13.972"/><rect x="76.514" y="81.65" width="1.278" height="16.479"/><rect x="76.514" y="28.81" width="1.278" height="13.971"/><rect x="73.197" y="31.944" width="1.279" height="13.971"/><rect x="70.291" y="36.78" width="1.28" height="13.972"/><path d="M25.663,59.916c7.522,0.837,6.686-7.642,6.686-7.642l-3.104,0.955C23.512,55.499,25.663,59.916,25.663,59.916z"/><path d="M32.349,59.08l-3.104,0.956c-5.732,2.269-3.582,6.687-3.582,6.687C33.185,67.56,32.349,59.08,32.349,59.08z"/><path d="M32.349,66.155l-3.104,0.956c-5.732,2.27-3.582,6.688-3.582,6.688C33.185,74.634,32.349,66.155,32.349,66.155z"/><path d="M32.349,73.052l-3.104,0.956c-5.732,2.269-3.582,6.687-3.582,6.687C33.185,81.53,32.349,73.052,32.349,73.052z"/><path d="M23.833,59.916c0,0,2.149-4.417-3.582-6.687l-3.106-0.955C17.146,52.274,16.311,60.753,23.833,59.916z"/><path d="M23.833,66.723c0,0,2.149-4.418-3.582-6.687l-3.106-0.956C17.146,59.08,16.311,67.56,23.833,66.723z"/><path d="M23.833,73.799c0,0,2.149-4.418-3.582-6.688l-3.106-0.956C17.146,66.155,16.311,74.634,23.833,73.799z"/><path d="M23.833,80.694c0,0,2.149-4.418-3.582-6.687l-3.106-0.956C17.146,73.052,16.311,81.53,23.833,80.694z"/><path d="M24.642,54.103c0,0,4.089-1.669,1.613-6.627l-1.506-2.502C24.748,44.973,19.102,50.148,24.642,54.103z"/><rect x="27.542" y="31.944" width="1.28" height="13.971"/><rect x="30.498" y="36.78" width="1.28" height="13.972"/><rect x="23.989" y="81.65" width="1.279" height="16.479"/><rect x="23.989" y="28.81" width="1.279" height="13.971"/><rect x="20.673" y="31.944" width="1.28" height="13.971"/><rect x="17.767" y="36.78" width="1.28" height="13.972"/></svg>