<svg xmlns="http://www.w3.org/2000/svg" viewBox="0 0 128 160" x="0px" y="0px"><path d="M90.79,80.76a2,2,0,0,0,1-2.63l-6.09-14.2a2,2,0,0,0-1.21-1.11l-13-4.26L82.9,54.31a2,2,0,0,0,.84-.6l7.6-9.21A2,2,0,1,0,88.25,42L81,50.75,69,55.24l-.14.07a7.35,7.35,0,0,0-.7-.67,7.76,7.76,0,0,0,1.61-4.48,2,2,0,0,0-.63-3.89H69l0-.06,6.09-6.78,6.7-2.56a2,2,0,0,0-1.43-3.74l-7.15,2.73a2,2,0,0,0-.77.53l-6.18,6.89a4.83,4.83,0,0,0-4.44,0L55.6,36.39a2,2,0,0,0-.77-.53l-7.15-2.73a2,2,0,0,0-1.43,3.74l6.7,2.56L59,46.21l0,.09a2,2,0,0,0-.73,3.85,7.77,7.77,0,0,0,1.61,4.48,7.41,7.41,0,0,0-.7.67L59,55.24,47,50.75,39.75,42a2,2,0,1,0-3.09,2.54l7.59,9.21a2,2,0,0,0,.84.6l11.38,4.25-13,4.26a2,2,0,0,0-1.21,1.11l-6.1,14.2a2,2,0,1,0,3.68,1.58l5.74-13.37,11-3.61L45.4,78A2,2,0,0,0,45,79.12l-.3,12.56a2,2,0,0,0,2,2h0a2,2,0,0,0,2-2L49,79.85l9.73-13.27.2.26c-2.11,2.64-3.49,6.87-3.49,11.66,0,8,3.84,14.5,8.57,14.5s8.57-6.49,8.57-14.5c0-4.79-1.38-9-3.49-11.66l.2-.26L79,79.85l.28,11.94a2,2,0,0,0,2,2h0a2,2,0,0,0,2-2L83,79.12A2,2,0,0,0,82.6,78L71.42,62.74l11,3.61,5.74,13.37a2,2,0,0,0,2.63,1ZM64,46.74c.72,0,1.77,1.18,1.77,3s-1,3-1.77,3-1.77-1.18-1.77-3S63.28,46.74,64,46.74ZM64,89c-1.61,0-4.57-4-4.57-10.5S62.39,68,64,68s4.57,4,4.57,10.5S65.61,89,64,89Z"/><path d="M36,34a2,2,0,0,0-2.83,0q-.72.74-1.41,1.52a2,2,0,1,0,3,2.65q.62-.71,1.28-1.38A2,2,0,0,0,36,34Z"/><path d="M29.62,41.57a2,2,0,0,0-2.74.71q-.53.9-1,1.82A2,2,0,1,0,29.41,46q.44-.84.91-1.65A2,2,0,0,0,29.62,41.57Z"/><path d="M24.16,56.27a2,2,0,0,0,1.94-1.53q.22-.92.49-1.82a2,2,0,0,0-3.84-1.13q-.29,1-.54,2a2,2,0,0,0,1.94,2.47Z"/><path d="M25.95,84a2,2,0,0,0,3.54-1.87q-.44-.83-.84-1.68A2,2,0,0,0,25,82.19Q25.47,83.13,25.95,84Z"/><path d="M21,62q0,1,0,2v.08a2,2,0,0,0,2,2,2,2,0,0,0,2-2q0-.91,0-1.81A2,2,0,1,0,21,62Z"/><path d="M40.62,32.31A2,2,0,0,0,41.76,32q.77-.54,1.57-1a2,2,0,1,0-2.12-3.39q-.88.55-1.73,1.14a2,2,0,0,0,1.14,3.64Z"/><path d="M22.26,74.37a2,2,0,1,0,3.88-1q-.23-.91-.41-1.84a2,2,0,0,0-3.92.77Q22,73.36,22.26,74.37Z"/><path d="M81.05,24.51q-1-.41-1.93-.78a2,2,0,1,0-1.4,3.75q.88.33,1.75.71a2,2,0,0,0,1.59-3.67Z"/><path d="M88.31,28.53A2,2,0,1,0,86,31.82q.78.53,1.53,1.11A2,2,0,0,0,90,29.74Q89.17,29.11,88.31,28.53Z"/><path d="M98.34,86.5a2,2,0,0,0,2.74-.7c.35-.6.69-1.21,1-1.82a2,2,0,0,0-3.54-1.86q-.44.84-.92,1.64A2,2,0,0,0,98.34,86.5Z"/><path d="M57,23.55a2,2,0,0,0,2,1.76l.25,0q.93-.11,1.88-.19a2,2,0,1,0-.3-4q-1,.08-2.06.2A2,2,0,0,0,57,23.55Z"/><path d="M49.35,27.69a2,2,0,0,0,.71-.13q.88-.34,1.77-.63a2,2,0,0,0-1.25-3.8q-1,.32-2,.69a2,2,0,0,0,.71,3.87Z"/><path d="M69,21.29a2,2,0,1,0-.46,4q.94.11,1.87.26l.33,0a2,2,0,0,0,.32-4Q70.08,21.41,69,21.29Z"/><path d="M34.68,92.73a2,2,0,0,0,.17-2.82q-.63-.7-1.22-1.44A2,2,0,0,0,30.51,91q.65.81,1.34,1.58a2,2,0,0,0,2.82.17Z"/><path d="M77.86,100.47q-.88.33-1.77.63a2,2,0,1,0,1.23,3.8q1-.32,2-.69a2,2,0,0,0-1.42-3.74Z"/><path d="M71,104.46a2,2,0,0,0-2.23-1.74q-.93.11-1.87.18a2,2,0,0,0,.14,4h.15q1-.08,2.07-.2A2,2,0,0,0,71,104.46Z"/><path d="M86.17,96.09q-.77.53-1.57,1a2,2,0,0,0,2.12,3.39q.88-.55,1.73-1.14a2,2,0,1,0-2.28-3.29Z"/><path d="M105.72,53.55a2,2,0,1,0-3.88,1q.23.91.41,1.84a2,2,0,0,0,3.92-.78Q106,54.55,105.72,53.55Z"/><path d="M93.35,94.63a2,2,0,0,0,1.43-.6q.73-.75,1.41-1.52a2,2,0,1,0-3-2.65q-.63.71-1.28,1.38a2,2,0,0,0,1.43,3.4Z"/><path d="M101.88,73.33q-.23.92-.49,1.82a2,2,0,1,0,3.83,1.14q.29-1,.54-2a2,2,0,1,0-3.88-1Z"/><path d="M96.09,35.37a2,2,0,0,0-3,2.66q.63.7,1.22,1.43A2,2,0,1,0,97.43,37Q96.78,36.15,96.09,35.37Z"/><path d="M59.1,106.71a2,2,0,0,0,.23-4q-.94-.11-1.86-.27a2,2,0,1,0-.67,3.94q1,.17,2.06.3Z"/><path d="M107,66.07q0-1,0-2.07v-.17a2,2,0,1,0-4,0V64q0,.95,0,1.88a2,2,0,0,0,1.9,2.09h.1A2,2,0,0,0,107,66.07Z"/><path d="M102,43.87a2,2,0,0,0-3.53,1.88q.44.83.84,1.68a2,2,0,1,0,3.62-1.7Q102.5,44.79,102,43.87Z"/><path d="M40.36,95a2,2,0,1,0-2.43,3.18q.83.63,1.68,1.22a2,2,0,0,0,2.27-3.29Q41.11,95.6,40.36,95Z"/><path d="M48.46,99.78a2,2,0,1,0-1.59,3.67q1,.41,1.93.78a2,2,0,0,0,1.41-3.74Q49.33,100.16,48.46,99.78Z"/><path d="M64,0a2,2,0,0,0-2,2v8.48l-.46-.56a2,2,0,0,0-3.07,2.56l4,4.8a2,2,0,0,0,3.07,0l4-4.8a2,2,0,1,0-3.07-2.56l-.46.56V2A2,2,0,0,0,64,0Z"/><path d="M64,128a2,2,0,0,0,2-2v-8.48l.46.56a2,2,0,1,0,3.07-2.56l-4-4.8a2.07,2.07,0,0,0-3.07,0l-4,4.8a2,2,0,0,0,3.07,2.56l.46-.56V126A2,2,0,0,0,64,128Z"/><path d="M126,62h-8.48l.56-.46a2,2,0,0,0-2.56-3.07l-4.8,4a2,2,0,0,0,0,3.07l4.8,4a2,2,0,1,0,2.56-3.07l-.56-.46H126a2,2,0,0,0,0-4Z"/><path d="M0,64a2,2,0,0,0,2,2h8.48l-.56.46a2,2,0,1,0,2.56,3.07l4.8-4a2,2,0,0,0,0-3.07l-4.8-4a2,2,0,1,0-2.56,3.07l.56.46H2A2,2,0,0,0,0,64Z"/><path d="M107.84,109.84a2,2,0,0,0,1.41-3.41l-6-6,.72.07a2,2,0,1,0,.36-4l-6.22-.57a2,2,0,0,0-1.6.58,2,2,0,0,0-.58,1.6l.57,6.22a2,2,0,0,0,2,1.82h.18A2,2,0,0,0,100.5,104l-.07-.72,6,6A2,2,0,0,0,107.84,109.84Z"/><path d="M18.75,18.75a2,2,0,0,0,0,2.83l6,6L24,27.5a2,2,0,1,0-.36,4l6.22.57h.18a2,2,0,0,0,2-2.18l-.57-6.22a2,2,0,1,0-4,.36l.07.72-6-6A2,2,0,0,0,18.75,18.75Z"/><path d="M29.31,106.16h.18a2,2,0,0,0,2-1.82l.57-6.22a2,2,0,0,0-2.17-2.17l-6.22.57a2,2,0,0,0,.36,4l.72-.07-6,6a2,2,0,1,0,2.83,2.83l6-6-.07.72A2,2,0,0,0,29.31,106.16Z"/><path d="M109.25,18.75a2,2,0,0,0-2.83,0l-6,6,.07-.72a2,2,0,0,0-4-.36l-.57,6.22a2,2,0,0,0,2,2.18h.18l6.22-.57a2,2,0,1,0-.36-4l-.72.07,6-6A2,2,0,0,0,109.25,18.75Z"/></svg>