<svg xmlns="http://www.w3.org/2000/svg" viewBox="0 0 68 85" x="0px" y="0px"><polygon points="24.69 25.09 19.86 20.26 17.95 22.18 16.03 24.09 20.86 28.92 24.69 25.09"/><polygon points="16.04 16.43 13.62 14.02 11.71 15.94 9.79 17.85 14.62 22.68 16.53 20.76 18.45 18.84 16.04 16.43"/><polygon points="10.29 14.52 12.21 12.6 9.8 10.19 7.38 7.78 3.55 11.61 8.38 16.44 10.29 14.52"/><polygon points="20.74 56.36 20.74 56.36 20.03 57.07 20.74 56.36"/><path d="M22.78,45.22c-2.29-2.28-6.71-1.9-10.5.9a1.27,1.27,0,0,0-.64,1.14l9.1,9.1c.11.08.71,0,1.14-.63,2.8-3.81,3.18-8.22.91-10.5Z"/><path d="M47.22,24.92a3.89,3.89,0,0,0-.8-3.33,3.85,3.85,0,0,0-3.34-.8,7.2,7.2,0,0,0-2.85,1.09l5.89,5.9A7.06,7.06,0,0,0,47.22,24.92Z"/><polygon points="13.62 11.19 17.46 7.36 12.63 2.53 8.8 6.36 11.21 8.78 13.62 11.19"/><polygon points="21.28 18.84 23.69 21.26 26.11 23.67 29.94 19.84 25.11 15.01 23.2 16.93 21.28 18.84"/><polygon points="17.45 15.02 19.86 17.43 21.78 15.51 23.7 13.6 18.87 8.77 15.04 12.6 17.45 15.02"/><polygon points="50.57 48.14 55.4 52.96 57.31 51.05 59.23 49.13 54.4 44.3 52.49 46.22 50.57 48.14"/><polygon points="53.48 57.71 51.56 59.63 56.39 64.45 60.22 60.62 55.4 55.79 53.48 57.71"/><polygon points="60.64 50.54 58.73 52.46 56.81 54.38 61.64 59.2 65.47 55.37 60.64 50.54"/><rect x="40.7" y="44.23" width="5.42" height="6.83" transform="translate(-20.97 44.66) rotate(-45.01)"/><polygon points="49.16 46.72 51.07 44.81 52.99 42.89 48.16 38.06 44.33 41.9 49.16 46.72"/><path d="M46.25,30.73l-9-9a.2.2,0,0,0-.15-.06.2.2,0,0,0-.14.06L19.71,39a.21.21,0,0,0,0,.29l4.48,4.48h0l4.47,4.47a.19.19,0,0,0,.29,0L46.25,31A.21.21,0,0,0,46.25,30.73Z"/><polygon points="53.98 54.38 49.16 49.55 45.32 53.38 50.15 58.21 52.06 56.29 53.98 54.38"/><path d="M4.53,53.77h-2a11.72,11.72,0,0,0,11.7,11.7v-2A9.71,9.71,0,0,1,4.53,53.77Z"/><path d="M11.12,53.77h-2a5.11,5.11,0,0,0,5.11,5.11v-2A3.11,3.11,0,0,1,11.12,53.77Z"/></svg>