<svg xmlns="http://www.w3.org/2000/svg" viewBox="0 0 48 60" x="0px" y="0px"><g><path d="M14.80664,13.3916c-.01166-.00854-.02582-.0094-.03772-.01733a.95967.95967,0,0,0-.19134-.08777.79913.79913,0,0,0-.71412-.00055.9685.9685,0,0,0-.19262.0882c-.012.008-.02625.00891-.038.01745-.46582.33789-11.40918,8.39453-11.40918,18.32617,0,8.66211,3.669,12.873,11.21778,12.873,4.77148,0,12.77539-1.67285,12.77539-12.873C26.2168,21.78613,15.27246,13.72949,14.80664,13.3916ZM13.44141,42.59082c-4.292,0-9.21778-1.23633-9.21778-10.873,0-7.67761,7.77918-14.47107,9.99652-16.2511,2.21723,1.77674,9.99665,8.56025,9.99665,16.2511C24.2168,38.93262,20.5918,42.59082,13.44141,42.59082Z"/><path d="M29.21387,3.165c-.01276-.00922-.02814-.01025-.04114-.0188a.96387.96387,0,0,0-.18585-.0849A.99737.99737,0,0,0,28.815,2.9989a.80462.80462,0,0,0-.54645.061.96059.96059,0,0,0-.191.08752c-.01214.00806-.02655.009-.03845.01764-.21386.15527-5.22656,3.8457-5.22656,8.47656,0,4.11133,1.84082,6.19629,5.47266,6.19629,3.91015,0,6.15332-2.25879,6.15332-6.19629C34.43848,7.01074,29.42676,3.32031,29.21387,3.165Zm-.92871,12.67285c-2.084,0-3.47266-.71387-3.47266-4.19629,0-2.79883,2.61749-5.35736,3.81342-6.38129,1.19567,1.02393,3.81256,3.58246,3.81256,6.38129C32.43848,14.46484,31.08008,15.83789,28.28516,15.83789Z"/><path d="M44.77637,2.36719H36.21289a1,1,0,0,0,0,2h7.56348V9.40625H39.13281a1,1,0,0,0,0,2h4.64356v4.52051H39.13281a1,1,0,1,0,0,2h4.64356v4.51953H39.13281a1,1,0,0,0,0,2h4.64356V28.9668H39.13281a1,1,0,0,0,0,2h4.64356v4.51953H39.13281a1,1,0,0,0,0,2h4.64356v5.10449H36.60254a1,1,0,0,0,0,2h8.17383a.99943.99943,0,0,0,1-1V3.36719A.99942.99942,0,0,0,44.77637,2.36719Z"/></g></svg>