<svg xmlns="http://www.w3.org/2000/svg" viewBox="0 0 64 80" x="0px" y="0px"><g><path d="M62.9263,33.1658a.5088.5088,0,0,0-.4347-.2447H57.8087V29.5092a.5079.5079,0,0,0-.5082-.5082H54.9233V26.2422a.5079.5079,0,0,0-.5082-.5082H52.0915V23.6282a.5078.5078,0,0,0-.5082-.5081H31.7638a.5078.5078,0,0,0-.5081.5081V25.734H28.9331a.5079.5079,0,0,0-.5082.5082V29.001H26.0467a.5079.5079,0,0,0-.5082.5082v3.4119H21.6933l-3.0064-3.2144a.5068.5068,0,0,0-.3713-.1613H1.5086a.5094.5094,0,0,0-.4943.6283l.4268,1.7583a6.9529,6.9529,0,0,0,3.1365,4.31,5.9992,5.9992,0,0,1,2.4923,3.06l.45,1.2432a.5065.5065,0,0,0,.4774.3354H58.88a.5082.5082,0,0,0,.4506-.2734l3.612-6.9425A.5066.5066,0,0,0,62.9263,33.1658ZM32.272,24.1364H51.0751V25.734H32.272ZM29.4413,26.75H53.9069V29.001H29.4413Zm-2.8864,3.2671H56.7923v2.9037H26.5549Zm32.016,9.8462H8.3533l-.3275-.9077A7.0242,7.0242,0,0,0,5.11,35.3752a5.9367,5.9367,0,0,1-2.68-3.6834l-.2749-1.13H18.0953l3.0065,3.2144a.5064.5064,0,0,0,.3712.1613H61.6538ZM17.2447,32.94a.5079.5079,0,0,1-.5082.5082H14.0407a.5082.5082,0,0,1,0-1.0164h2.6958A.5079.5079,0,0,1,17.2447,32.94Zm-6.7792,0a.5079.5079,0,0,1-.5082.5082H7.2625a.5082.5082,0,0,1,0-1.0164H9.9573A.5079.5079,0,0,1,10.4655,32.94Z"/></g></svg>