<svg xmlns="http://www.w3.org/2000/svg" xmlns:xlink="http://www.w3.org/1999/xlink" version="1.1" x="0px" y="0px" viewBox="0 0 100 125" enable-background="new 0 0 100 100" xml:space="preserve"><desc>Created with Sketch.</desc><g><path d="M72.871,56.088h3.123c-0.322,4.539-1.842,8.91-4.405,12.668c-2.96-1.333-6.046-2.367-9.212-3.087 c0.44-1.558,0.801-3.136,1.081-4.73c-0.841-1.042-1.962-2.605-3.404-4.649c-0.192,2.942-0.743,5.85-1.643,8.658 c-2.79-0.508-5.616-0.79-8.451-0.842c-2.775,0.023-5.545,0.238-8.291,0.642c-0.945-2.8-1.524-5.71-1.723-8.659h20.027 c-0.882-1.203-1.803-2.565-2.764-4.009H39.947c0.179-2.954,0.717-5.875,1.602-8.699c2.783,0.436,5.595,0.663,8.411,0.682 c0.802,0,1.241,0,2.003,0c-0.561-1.243-0.961-2.605-1.522-4.009H49.96c-2.292-0.011-4.581-0.185-6.849-0.521 c1.308-2.847,2.934-5.537,4.846-8.018c0-0.441,0-0.882,0-1.283v-6.214C31.691,25.129,19.289,39.04,20.032,55.341 c0.742,16.302,14.357,29.025,30.657,28.651C66.988,83.617,80.006,70.281,80,53.963c-0.002-2.295-0.271-4.582-0.801-6.814 C77.32,50.285,75.205,53.273,72.871,56.088z M45.194,28.467c-2.49,3.176-4.55,6.667-6.128,10.383 c-2.754-0.586-5.439-1.459-8.011-2.605C34.838,32.234,39.784,29.514,45.194,28.467z M28.452,39.412 c2.978,1.37,6.093,2.418,9.292,3.126c-1.009,3.09-1.614,6.296-1.803,9.541H23.926C24.291,47.531,25.853,43.16,28.452,39.412z M28.376,68.6c-2.559-3.705-4.097-8.02-4.45-12.512h12.016c0.16,3.18,0.698,6.328,1.603,9.381 C34.385,66.185,31.313,67.235,28.376,68.6z M31.015,71.883h0.04c2.575-1.138,5.259-2.011,8.011-2.605 c1.567,3.741,3.643,7.249,6.168,10.423C39.782,78.682,34.798,75.942,31.015,71.883z M50,79.219 c-2.82-3.172-5.143-6.754-6.889-10.623h-0.04c2.283-0.309,4.584-0.469,6.889-0.481c2.333,0.011,4.661,0.186,6.97,0.521 C55.2,72.512,52.86,76.085,50,79.219z M54.847,79.66h-0.04c2.531-3.133,4.596-6.617,6.128-10.343 c2.748,0.608,5.431,1.481,8.011,2.605C65.174,75.92,60.241,78.627,54.847,79.66z"/><path d="M80,30.031C80,22.282,73.724,16,65.981,16s-14.019,6.282-14.019,14.031c0,10.503,14.019,26.057,14.019,26.057 S80,40.534,80,30.031z M60.975,30.031c0-2.768,2.242-5.011,5.007-5.011s5.007,2.243,5.007,5.011s-2.242,5.011-5.007,5.011 S60.975,32.798,60.975,30.031z"/></g></svg>