<svg xmlns="http://www.w3.org/2000/svg" xmlns:xlink="http://www.w3.org/1999/xlink" version="1.1" x="0px" y="0px" viewBox="0 0 70 87.5" style="enable-background:new 0 0 70 70;" xml:space="preserve"><g><path d="M9.79004,65.24951H6.125c-0.41406,0-0.75,0.33594-0.75,0.75s0.33594,0.75,0.75,0.75h4.4054 c0.00342,0.00006,0.00623,0.00195,0.00964,0.00195h6.9248h5.29785h9.9375h14.66016h5.29785h6.43262 c0.00342,0,0.00623-0.00189,0.00964-0.00195H63.875c0.41406,0,0.75-0.33594,0.75-0.75s-0.33594-0.75-0.75-0.75h-4.03418V24.23096 c0-3.73242-1.45215-7.23438-4.08691-9.86133c-1.26758-1.26752-2.73901-2.25336-4.33569-2.9436 c-0.03833-0.0166-0.07446-0.03723-0.11292-0.05347c-0.3197-0.13477-0.64783-0.24792-0.97693-0.35822 c-0.10815-0.03644-0.21216-0.08118-0.32129-0.11499c-0.25-0.0769-0.50635-0.13336-0.76099-0.19611 c-0.19751-0.04901-0.39099-0.10748-0.59155-0.14801c-0.13818-0.02765-0.28003-0.04071-0.41919-0.06421 c-0.7644-0.13025-1.5448-0.2132-2.3457-0.2132c-2.26575,0-4.49207,0.55402-6.49219,1.60382 c-0.08862-0.17688-0.17908-0.35211-0.27393-0.52466c-0.01758-0.03217-0.03687-0.06342-0.05493-0.09546 c-0.21484-0.38477-0.44543-0.75739-0.6897-1.11926c-0.02222-0.03271-0.04419-0.06561-0.06653-0.09821 c-0.83289-1.21423-1.82483-2.29266-2.94299-3.21417c-0.03027-0.02521-0.06091-0.04999-0.09143-0.07495 c-0.36365-0.29517-0.73767-0.57672-1.12598-0.83789c-0.02661-0.01801-0.05212-0.0379-0.07898-0.05579 c-0.38062-0.25262-0.77271-0.4873-1.17432-0.70593c-0.12915-0.07062-0.26147-0.13361-0.39246-0.20044 c-0.26819-0.13629-0.53943-0.26569-0.81555-0.38647c-0.16467-0.07227-0.32922-0.14374-0.49634-0.21014 c-0.30762-0.12219-0.62012-0.2323-0.93579-0.33502c-0.13184-0.04272-0.26172-0.08972-0.39478-0.12897 c-0.3988-0.1181-0.8042-0.21735-1.21387-0.30365c-0.13745-0.02875-0.276-0.05194-0.41455-0.07703 c-0.34595-0.06323-0.69458-0.11469-1.04663-0.15466c-0.11426-0.01282-0.22766-0.02765-0.34241-0.03796 c-0.47205-0.04309-0.94714-0.07245-1.42737-0.07245c-0.53198,0-1.0575,0.02985-1.5769,0.08282 c-0.10693,0.01074-0.21021,0.03363-0.31665,0.04657c-0.39417,0.04852-0.78687,0.10175-1.17188,0.17944 c-0.26355,0.05261-0.5188,0.12628-0.77734,0.19202c-0.21729,0.05573-0.43738,0.10309-0.65112,0.16791 c-0.3374,0.10156-0.66467,0.22437-0.99219,0.34778c-0.12427,0.04718-0.25171,0.08722-0.37451,0.13745 c-0.37708,0.15332-0.74268,0.32684-1.10449,0.50806c-0.06482,0.03265-0.13184,0.06104-0.19604,0.09454 c-0.3938,0.20416-0.7749,0.42731-1.14832,0.66315c-0.02808,0.01782-0.05725,0.03394-0.08521,0.05188 c-0.39343,0.25201-0.77283,0.52191-1.14136,0.80713c-0.00671,0.00525-0.01379,0.01007-0.02051,0.01532 c-2.27771,1.76898-4.0481,4.14923-5.0741,6.89722c-0.00171,0.00494-0.00354,0.00983-0.00537,0.01477 c-0.16809,0.45154-0.31543,0.91162-0.44189,1.38165c-0.00391,0.01477-0.00745,0.0296-0.01135,0.04437 c-0.12268,0.46161-0.22498,0.93018-0.3053,1.40735c-0.00439,0.02655-0.00793,0.05341-0.01221,0.08002 c-0.07605,0.46606-0.13257,0.93744-0.16626,1.4162c-0.00098,0.01471-0.00415,0.02875-0.00513,0.04346 c-0.00037,0.00531,0.00244,0.01019,0.0022,0.0155c-0.02319,0.34698-0.05298,0.69232-0.05298,1.04504V65.24951z M11.29004,18.88818 c0-0.08771,0.01147-0.17249,0.01318-0.25977h5.41162v5.29297v10.51953v10.52051v10.51953v9.76855h-5.4248V18.88818z M17.08911,7.49518c0.29578-0.21777,0.60132-0.42236,0.9137-0.617c0.06433-0.03992,0.12891-0.0791,0.19385-0.11798 c0.28699-0.17255,0.58057-0.33466,0.88-0.48682c0.104-0.05261,0.20984-0.10217,0.31543-0.15222 c0.27075-0.12933,0.54517-0.2522,0.82495-0.36432c0.15442-0.06152,0.31213-0.11597,0.46924-0.17212 c0.24329-0.08759,0.48706-0.17407,0.73633-0.24835c0.22021-0.06519,0.44531-0.11829,0.66992-0.17279 c0.19849-0.04865,0.39502-0.10175,0.59644-0.14185c0.33057-0.06506,0.66724-0.11255,1.00562-0.15399 c0.10645-0.01318,0.21033-0.03418,0.31738-0.04492c0.46301-0.04602,0.93201-0.07135,1.40698-0.07135 c0.43359,0,0.86328,0.02454,1.29004,0.06287c0.09314,0.00848,0.18579,0.01941,0.27856,0.02972 c0.34058,0.03741,0.67822,0.0882,1.01294,0.14966c0.09546,0.0177,0.19189,0.03156,0.28662,0.05115 c0.38794,0.07953,0.77087,0.1759,1.14868,0.28735c0.12378,0.03656,0.24475,0.08026,0.36719,0.12018 c0.26685,0.08679,0.53101,0.18085,0.79175,0.28345c0.13745,0.05402,0.27466,0.10815,0.41003,0.16638 c0.35291,0.15198,0.70203,0.31281,1.04163,0.49365c0.03247,0.01721,0.06396,0.03632,0.09631,0.05377 c0.34998,0.19,0.69177,0.39648,1.026,0.6167c0.06201,0.04059,0.12317,0.08258,0.18457,0.12415 c0.73181,0.49915,1.42456,1.06659,2.06372,1.70746c1.10742,1.1084,2.01172,2.36914,2.69238,3.75488 c-0.00317,0.00214-0.00586,0.00476-0.00903,0.0069c-0.46313,0.31287-0.90222,0.65039-1.31885,1.00909 c-0.02686,0.02307-0.05408,0.04559-0.08069,0.06885c-0.39941,0.34912-0.77539,0.71863-1.12903,1.10632 c-0.03467,0.03796-0.06909,0.07574-0.10327,0.11401c-0.34204,0.3833-0.66113,0.78345-0.95654,1.19958 c-0.03394,0.04755-0.06677,0.09546-0.09998,0.14343c-0.18665,0.26984-0.36389,0.54535-0.5304,0.82739H23.5127v-1.07813 c0-1.87402-1.52441-3.39941-3.39844-3.39941s-3.39941,1.52539-3.39941,3.39941v1.07813h-5.2998 c0.49243-3.91925,2.59045-7.32684,5.58936-9.56982C17.03271,7.53754,17.06079,7.51605,17.08911,7.49518z M48.35278,12.02466 c0.198,0.03955,0.39063,0.09753,0.58606,0.14661c0.20776,0.05261,0.41846,0.09741,0.62195,0.16034 c0.11243,0.03455,0.22046,0.08105,0.33179,0.11884c0.27856,0.09497,0.5575,0.18939,0.82678,0.30316 c0.05042,0.02124,0.09827,0.04828,0.14832,0.07019c0.323,0.14154,0.64185,0.29077,0.94983,0.45825 c0.00671,0.00366,0.01294,0.00824,0.01965,0.01184c3.87,2.11389,6.50171,6.22198,6.50171,10.93414v1.35059h-4.92773v-2.15918 c0-0.8252-0.37012-1.5957-1.04297-2.16992c-0.63281-0.54102-1.4707-0.83984-2.35742-0.83984 c-1.87402,0-3.39941,1.35059-3.39941,3.00977v2.15918H33.4502v-1.34766c0-1.0979,0.14038-2.17029,0.40955-3.19696 c0.25403-0.96887,0.63196-1.8924,1.10596-2.76282c0.00818-0.01306,0.0238-0.01874,0.03137-0.03241 c0.95581-1.74805,2.33716-3.22418,3.98755-4.33679c0.15942-0.10681,0.30518-0.22791,0.47046-0.32825 c0.00073-0.00037,0.00098-0.0011,0.00171-0.00146c1.93677-1.1709,4.16235-1.79053,6.43481-1.79053 c0.7373,0,1.4624,0.07397,2.17407,0.19897C48.16064,11.99756,48.25854,12.00568,48.35278,12.02466z M18.21484,35.19092h3.79785 v9.02051h-3.79785V35.19092z M22.0127,33.69092h-3.79785v-9.01953h3.79785V33.69092z M18.21484,45.71143h3.79785v9.01953h-3.79785 V45.71143z M22.0127,17.85907c-0.00024,0.00684-0.00391,0.01251-0.00391,0.01935s0.00366,0.01251,0.00391,0.01935v5.27362h-3.79785 v-5.27362c0.00024-0.00684,0.00391-0.01251,0.00391-0.01935s-0.00366-0.01251-0.00391-0.01935v-1.80878 c0-1.04688,0.85254-1.89941,1.89941-1.89941s1.89844,0.85254,1.89844,1.89941V17.85907z M18.21484,56.23096h3.79785v9.01855 h-3.79785V56.23096z M23.5127,65.24951v-9.76855V44.96143V34.44092V23.92139v-5.29297h9.60291 c-0.07336,0.1684-0.14551,0.33728-0.21228,0.50873c-0.01868,0.04785-0.03516,0.09644-0.05322,0.14453 c-0.18311,0.48596-0.34204,0.98193-0.47021,1.48914c-0.00928,0.03668-0.01624,0.07397-0.02515,0.11084 c-0.12769,0.52307-0.22888,1.05499-0.2959,1.59613c-0.00208,0.01678-0.00293,0.03381-0.00488,0.05066 c-0.06714,0.55914-0.10474,1.12592-0.10474,1.69958v2.10059c0,0.00171,0.00098,0.00311,0.00098,0.00482v38.91608H23.5127z M33.4502,27.07861h13.16113v3.05078v8.961c0,0.00171-0.00098,0.00311-0.00098,0.00482v8.96875v8.96875v8.2168H33.4502V27.07861z M51.91113,38.34521h-3.7998v-7.46582h3.7998V38.34521z M48.11035,39.8501h3.79785v7.46387h-3.79785V39.8501z M48.11035,48.81396 h3.79785v7.46875h-3.79785V48.81396z M51.91113,26.31897c0,0.00342-0.00195,0.00623-0.00195,0.00964 s0.00195,0.00623,0.00195,0.00964v3.04114h-3.7998v-5.95996c0-0.83203,0.85254-1.50977,1.89941-1.50977 c0.5293,0,1.02051,0.1709,1.38281,0.48047c0.23633,0.20117,0.51758,0.54395,0.51758,1.0293V26.31897z M48.11035,65.24951v-7.4668 h3.79785v7.4668H48.11035z M53.4082,65.24951v-8.2168v-8.96875v-8.94934c0.00012-0.00513,0.00293-0.0094,0.00293-0.01453v-8.9707 v-3.05078h4.92969v38.1709H53.4082z"/></g></svg>