<svg xmlns="http://www.w3.org/2000/svg" viewBox="0 0 64 80" x="0px" y="0px"><path d="M33.8,37.25059V27.5a1.8,1.8,0,1,0-3.6,0V38.09038a1.79943,1.79943,0,0,0,.69038,1.41724,9.9,9.9,0,1,1-12.18076,0A1.79943,1.79943,0,0,0,19.4,38.09038V12.2a5.4,5.4,0,1,1,10.8,0v6.3a1.8,1.8,0,1,0,3.6,0V12.2a9,9,0,1,0-18,0V37.25059a13.5,13.5,0,1,0,18,0Z"/><path d="M24.8,10.4A1.80009,1.80009,0,0,0,23,12.2V42.215a5.4,5.4,0,1,0,3.6,0V12.2A1.80009,1.80009,0,0,0,24.8,10.4Zm0,38.7a1.8,1.8,0,1,1,1.8-1.8A1.80532,1.80532,0,0,1,24.8,49.1Z"/><circle cx="36.5" cy="22.84663" r="1.8"/><path d="M45.5,22.84707a9.04423,9.04423,0,0,0-4.442-7.76118,1.8001,1.8001,0,1,0-1.82637,3.10254,5.40106,5.40106,0,0,1-.00044,9.31772,1.79994,1.79994,0,1,0,1.82725,3.10166A9.04459,9.04459,0,0,0,45.5,22.84707Z"/><path d="M44.66328,8.84653a1.8,1.8,0,0,0-1.81846,3.10694,12.61337,12.61337,0,0,1,0,21.7872,1.8,1.8,0,0,0,1.81846,3.10694,16.21333,16.21333,0,0,0,0-28.00108Z"/></svg>