<svg xmlns="http://www.w3.org/2000/svg" xmlns:xlink="http://www.w3.org/1999/xlink" version="1.1" x="0px" y="0px" viewBox="0 0 100 125" style="enable-background:new 0 0 100 100;" xml:space="preserve"><path d="M95.3,33.5l-1.6-8l-8.4,0.3c-3.3,0-19.8-0.6-27.2-12.5l-8-12.5l-8.1,12.6c-7.2,11.8-23.8,12.3-27,12.3 l-8.5-0.3l-1.6,8C4.8,35.1,2.4,49,5.8,65.4C7.9,75.6,12.6,88,22.6,98.7v-4.4h5.3C18.7,84.6,14.4,73.3,12.5,64 c-3.2-15.1-1-27.8-0.7-29.2l0.4-2.3l2.8,0.1c3.9,0,23.7-0.7,32.9-15.5l2.3-3.6l2.2,3.5c9.2,14.9,29,15.6,33,15.6c0,0,0,0,0,0 l2.7-0.1l0.4,2.3c0.3,1.4,2.5,13.9-0.7,29.2c-1.9,9.2-6.2,20.5-15.4,30.3H78v4.2c9.9-10.7,14.5-23.1,16.6-33.2 C98.1,48.7,95.6,35,95.3,33.5z"/><path d="M73.9,45.3l-0.6-2.9l-3.2,0.1c-2,0-12.4-0.4-17-8L50.2,30l-2.9,4.6c-4.6,7.5-15,7.9-17,7.9l-3.2-0.1l-0.6,2.9 c-0.2,0.8-1.5,8.4,0.4,17.3c1.8,8.7,7.1,20.5,21.9,27l1.4,0.7l1.4-0.6c14.8-6.5,20.1-18.2,21.9-27C75.4,53.5,74.1,46.1,73.9,45.3z M48.4,71.9l-8.8-8.8l4.5-4.5l4.3,4.3l9.5-9.5l4.5,4.5L48.4,71.9z"/></svg>