<svg xmlns="http://www.w3.org/2000/svg" xmlns:xlink="http://www.w3.org/1999/xlink" version="1.1" x="0px" y="0px" viewBox="0 0 100 125" enable-background="new 0 0 100 100" xml:space="preserve"><g><path fill="none" d="M28.4,35.4c-1.1-0.1-2.2-0.1-3.3-0.2l0.1,17.3c1,0.1,2.1,0.2,3.3,0.2L28.4,35.4z"/><path fill="none" d="M87.4,63.8l-0.1-18.3c-7.1,1.6-13.6,2.2-19.3,2.2c-4.5,0-8.4-0.3-11.7-0.7l0.1,18.3 C63.6,66.3,74.7,66.7,87.4,63.8z"/><path fill="none" d="M28.5,56c-1.1-0.1-2.2-0.1-3.3-0.2l0.1,18.3c1,0.1,2.1,0.2,3.3,0.2L28.5,56z"/><path fill="none" d="M67.9,87.7c11.8-0.1,18.9-2.4,19.6-3.6l-0.1-17c-7.1,1.6-13.6,2.2-19.3,2.2c-4.5,0-8.4-0.3-11.7-0.7l0.1,18.4 C59.5,87.4,63.4,87.7,67.9,87.7z"/><path fill="none" d="M56.3,32c-0.1,0.2-0.1,0.4-0.2,0.6l0.1,11.2c7.3,1,18.4,1.4,31-1.5l-0.1-17.3c-7.2,1.6-13.9,2.2-19.7,2.2 c-7,0-12.6-0.7-16.5-1.4l4.9,4.6C56.4,30.7,56.6,31.4,56.3,32z"/><path fill="none" d="M49.1,22c5.7,1.3,19.6,3.5,36.4-0.1L67.3,5.1L49.1,22z"/><path fill="none" d="M22.7,35c-1.2-0.1-2.3-0.3-3.3-0.4l0.1,17.2c1,0.2,2.1,0.3,3.3,0.5L22.7,35z"/><path fill="none" d="M17,34.2c-1.3-0.2-2.5-0.5-3.4-0.7l0.1,17.1c0.7,0.2,1.8,0.5,3.4,0.8L17,34.2z"/><path fill="none" d="M22.8,55.5c-1.2-0.1-2.3-0.3-3.3-0.5l0.1,18.3c1,0.2,2.1,0.3,3.3,0.5L22.8,55.5z"/><path fill="none" d="M17.2,54.6c-1.4-0.3-2.5-0.5-3.4-0.7l0.1,18.3c0.7,0.2,1.8,0.5,3.4,0.8L17.2,54.6z"/><path d="M90.1,21.9L68.3,1.7c-0.6-0.6-1.6-0.6-2.2,0L45.7,20.9L34.1,10.1c-0.6-0.6-1.6-0.6-2.2,0l-21.3,20c0,0,0,0,0,0.1 c0,0-0.1,0.1-0.1,0.2c0,0-0.1,0.1-0.1,0.1c0,0.1-0.1,0.1-0.1,0.2c0,0,0,0.1-0.1,0.1c0,0,0,0,0,0c0,0,0,0.1,0,0.1c0,0,0,0.1,0,0.1 c0,0.1,0,0.2,0,0.2c0,0,0,0.1,0,0.1c0,0,0,0,0,0c0,0.1,0,0.2,0.1,0.4c0,0,0,0.1,0,0.1c0,0.1,0.1,0.2,0.1,0.3c0,0,0,0,0,0.1 c0,0.2,0.1,0.4,0.1,0.5l0.4,60.1c0,6.6,21.9,6.5,22.9,6.5c0.9,0,22.8-0.2,22.8-6.8l0-2.4c5.5,0.8,11,0.7,11.4,0.7 c0.9,0,22.8-0.2,22.8-6.8l-0.4-60c0-0.1,0.1-0.4,0.2-0.6C90.7,23,90.6,22.3,90.1,21.9z M67.3,5.1L85.5,22 c-16.8,3.5-30.7,1.3-36.4,0.1L67.3,5.1z M25.1,35.2c1,0.1,2.1,0.2,3.3,0.2l0.1,17.3c-1.1-0.1-2.2-0.1-3.3-0.2L25.1,35.2z M25.2,55.8c1,0.1,2.1,0.2,3.3,0.2l0.1,18.3c-1.1-0.1-2.2-0.1-3.3-0.2L25.2,55.8z M19.4,34.6c1,0.2,2.1,0.3,3.3,0.4l0.1,17.3 c-1.2-0.1-2.3-0.3-3.3-0.5L19.4,34.6z M19.6,55.1c1,0.2,2.1,0.3,3.3,0.5l0.1,18.3c-1.2-0.1-2.3-0.3-3.3-0.5L19.6,55.1z M13.7,33.5 c0.9,0.2,2,0.5,3.4,0.7l0.1,17.2c-1.5-0.3-2.6-0.6-3.4-0.8L13.7,33.5z M13.8,53.9c0.8,0.2,2,0.5,3.4,0.7l0.1,18.3 c-1.5-0.3-2.6-0.6-3.4-0.8L13.8,53.9z M53.3,86.3l0,3.2l0,2.9c-0.6,1.1-5.7,2.9-14.3,3.4L39,85.3l-11.3,0.1l0.1,10.6 c-8.2-0.5-13.1-2.2-13.7-3.2l-0.1-17.2c3.2,0.8,10.4,2.3,19.9,2.2c3.4,0,7.2-0.2,11.2-0.8c1-0.1,2.1-0.3,3.2-0.5 c1.6-0.3,3.3-0.6,5-1L53.3,86.3z M53.1,64.8l0,3.3l0,4.1c-1.7,0.4-3.4,0.7-5,1c-1.1,0.2-2.1,0.3-3.2,0.5c-5.1,0.7-9.8,0.8-14,0.7 l-0.1-18.3c0.9,0,1.9,0,2.8,0c3.4,0,7.2-0.2,11.2-0.8c1-0.1,2.1-0.3,3.2-0.5c1.6-0.3,3.3-0.6,5-1L53.1,64.8z M53,43.2l0,3.3l0,4.1 c-1.7,0.4-3.4,0.7-5,1c-1.1,0.2-2.1,0.3-3.2,0.5c-5.1,0.7-9.8,0.8-14,0.7l-0.1-17.3c0.8,0,1.7,0,2.5,0c3.5,0,7.4-0.3,11.4-0.8 c1-0.1,2.1-0.3,3.2-0.5c1.6-0.3,3.3-0.6,5-1L53,43.2z M87.5,84c-0.7,1.3-7.8,3.6-19.6,3.6c-4.5,0-8.4-0.3-11.4-0.7l-0.1-18.4 c3.3,0.4,7.2,0.7,11.7,0.7c5.7,0,12.3-0.6,19.3-2.2L87.5,84z M87.4,63.8c-12.7,2.9-23.8,2.5-31,1.5L56.2,47 c3.3,0.4,7.2,0.7,11.7,0.7c5.7,0,12.3-0.6,19.3-2.2L87.4,63.8z M87.3,42.2c-12.7,2.9-23.8,2.5-31,1.5l-0.1-11.2 c0-0.1,0.1-0.4,0.2-0.6c0.2-0.6,0.1-1.3-0.4-1.7L51,25.7c3.9,0.7,9.6,1.5,16.5,1.4c5.8,0,12.5-0.6,19.7-2.2L87.3,42.2z"/></g></svg>