<svg xmlns="http://www.w3.org/2000/svg" viewBox="0 0 64 80"><path d="M57 17h4v20H1V17h48" fill="none" stroke="#000" stroke-linecap="round" stroke-linejoin="round" stroke-width="2"/><path transform="matrix(1.5 0 0 1.5 -624 -705.043)" d="M422 499.362a2 2 0 11-4 0 2 2 0 014 0z" fill="none" stroke="#000" stroke-width="1.333" stroke-linecap="round" stroke-linejoin="round"/><path d="M422 499.362a2 2 0 11-4 0 2 2 0 014 0z" transform="matrix(1.5 0 0 1.5 -614 -705.043)" fill="none" stroke="#000" stroke-width="1.333" stroke-linecap="round" stroke-linejoin="round"/><path d="M422 499.362a2 2 0 11-4 0 2 2 0 014 0z" transform="matrix(1.5 0 0 1.5 -584 -705.043)" fill="none" stroke="#000" stroke-width="1.333" stroke-linecap="round" stroke-linejoin="round"/><path transform="matrix(1.5 0 0 1.5 -574 -705.043)" d="M422 499.362a2 2 0 11-4 0 2 2 0 014 0z" fill="none" stroke="#000" stroke-width="1.333" stroke-linecap="round" stroke-linejoin="round"/><path d="M1 21h60" fill="none" stroke="#000" stroke-linecap="round" stroke-width="2"/><path d="M13 21v16M25 21v16M37 21v16M49 21v16M13 21v16M25 21v16M37 21v16M49 21v16" fill="none" stroke="#000" stroke-width="2"/><path d="M54 17a1 1 0 11-2 0 1 1 0 012 0z"/></svg>