<svg xmlns="http://www.w3.org/2000/svg" viewBox="0 0 100 81.914"><path d="M12.536 37.211l4.266 1.767a26.404 26.404 0 014.355-4.358l-1.766-4.264 13.356-5.531 1.766 4.264a26.404 26.404 0 016.162.001l1.767-4.266 13.354 5.532-1.767 4.266a26.321 26.321 0 014.357 4.355l4.265-1.767 5.532 13.356-4.265 1.766a26.34 26.34 0 01-.001 6.161l4.267 1.769-2.146 5.18c1.655.299 3.273.805 4.814 1.501 1.289.59 2.732.911 4.15.911 1.456 0 2.871-.325 4.188-.916a20.218 20.218 0 016.554-1.736V41.251h11.288l-16.931-14.85V7.279h-13.17v7.57L50 0 2.967 41.251h7.895l1.674-4.04zM12.494 79.149c2.255 0 4.423.518 6.343 1.419 1.88.844 3.983 1.346 6.159 1.346 2.192 0 4.295-.501 6.167-1.346a14.906 14.906 0 016.342-1.419c2.255 0 4.423.518 6.343 1.419a14.968 14.968 0 006.151 1.346c2.191 0 4.288-.501 6.175-1.346a14.947 14.947 0 016.327-1.419c2.263 0 4.431.518 6.351 1.419a15.024 15.024 0 006.15 1.346c2.192 0 4.279-.501 6.176-1.346a14.893 14.893 0 016.327-1.419c2.263 0 4.43.518 6.343 1.419 1.873.844 3.983 1.346 6.151 1.346v-9.243c-2.168 0-4.278-.492-6.151-1.347a15.406 15.406 0 00-6.343-1.386c-2.247 0-4.414.518-6.327 1.386a15.023 15.023 0 01-6.176 1.347 14.85 14.85 0 01-6.15-1.347 15.475 15.475 0 00-6.351-1.386c-2.239 0-4.406.518-6.327 1.386a15 15 0 01-6.175 1.347c-2.19 0-4.278-.492-6.151-1.347a15.466 15.466 0 00-6.343-1.386c-2.263 0-4.43.518-6.342 1.386a14.904 14.904 0 01-6.167 1.347c-2.175 0-4.279-.492-6.159-1.347a15.466 15.466 0 00-6.343-1.386c-2.247 0-4.414.518-6.334 1.386A14.896 14.896 0 010 72.671v9.243c2.191 0 4.279-.501 6.16-1.346a14.948 14.948 0 016.334-1.419z"/><path d="M60.059 43.505l-3.464 1.431c-2.028-3.686-5.047-6.581-8.546-8.508l1.468-3.463-4.479-1.844-1.431 3.463a21.602 21.602 0 00-12.046 0l-1.43-3.463-4.442 1.844 1.431 3.463a21.554 21.554 0 00-8.508 8.508l-3.463-1.431-1.845 4.442 3.463 1.431a21.602 21.602 0 000 12.046l-3.463 1.431.979 2.334c1.379.124 2.741.423 4.066.828l.263-.113.113.226c.708.231 1.428.482 2.108.791 1.306.592 2.744.941 4.179.941h.188a17.554 17.554 0 01-2.748-3.576l10.691-4.404-2.71 6.55c1.838-.691 3.762-1.147 5.722-1.28l1.431-3.426 1.43 3.464a20.5 20.5 0 015.797 1.317l-2.748-6.625 10.654 4.404a17.724 17.724 0 01-2.749 3.576h.038c1.45 0 2.862-.349 4.179-.941a20.172 20.172 0 012.296-.866l.113-.188.188.112a19.968 19.968 0 014.141-.79l.979-2.334-3.463-1.431a21.62 21.62 0 000-12.046l3.463-1.431-1.845-4.442zM20.606 59.843a17.447 17.447 0 010-8.847L31.297 55.4l-10.691 4.443zm1.845-13.326a17.394 17.394 0 016.249-6.25l4.442 10.692-10.691-4.442zm15.133 2.597l-4.405-10.692a17.408 17.408 0 014.48-.564c1.487.004 2.947.193 4.367.564l-4.442 10.692zm8.884-8.847a17.397 17.397 0 016.25 6.25l-10.654 4.442 4.404-10.692zm8.094 19.576L43.871 55.4l10.692-4.404c.778 2.975.74 6.007-.001 8.847z"/></svg>