<svg xmlns="http://www.w3.org/2000/svg" viewBox="0 0 100 125"><switch><g><path d="M15.999 58.135a1.394 1.394 0 110 2.787 1.393 1.393 0 010-2.787m0-1.508a2.897 2.897 0 00-2.896 2.903c0 1.601 1.296 2.9 2.896 2.9a2.9 2.9 0 100-5.803z"/><path d="M21.799 58.135c.768 0 1.394.627 1.394 1.396a1.39 1.39 0 11-2.782 0c0-.769.622-1.396 1.388-1.396m0-1.508a2.898 2.898 0 00-2.897 2.903 2.9 2.9 0 105.799 0 2.899 2.899 0 00-2.902-2.903zM5.067 37.567h66.234v14.244c0 .709-.574 1.283-1.283 1.283H6.35a1.283 1.283 0 01-1.283-1.283V37.567z"/><path d="M71.302 54.166H5v1.722h5.637v2.052h1.871c.083-.78.408-1.472.866-2.052h37.805l2.97 2.619a1.6 1.6 0 001.059.399c.625 0 1.191-.367 1.447-.938l.932-2.08h13.716v-1.722zM82.737 59.217a.99.99 0 01-.99.99H71.439a.99.99 0 01-.99-.99v-1.555h12.288v1.555z"/><path d="M66.407 58.135a1.393 1.393 0 010 2.787 1.392 1.392 0 01-1.389-1.391 1.396 1.396 0 011.389-1.396m0-1.508a2.898 2.898 0 00-2.898 2.903 2.9 2.9 0 105.799 0 2.898 2.898 0 00-2.901-2.903z"/><path d="M60.719 58.135c.768 0 1.394.627 1.394 1.396a1.392 1.392 0 01-2.783 0c0-.769.623-1.396 1.389-1.396m0-1.508a2.897 2.897 0 00-2.896 2.903 2.898 2.898 0 105.798 0 2.899 2.899 0 00-2.902-2.903zM88.573 58.139a1.394 1.394 0 010 2.786 1.394 1.394 0 010-2.786m0-1.508a2.898 2.898 0 00-2.898 2.901 2.9 2.9 0 102.898-2.901z"/><path d="M94.998 56.626c0-.645-1.043-5.202-1.043-5.202-.117-.682-7.026-1.802-7.026-1.802l-1.438-4.149h.956l-.115-.32a1.463 1.463 0 00-.99-.909 5.138 5.138 0 01-.324-.093s-.246-.65-.53-1.275a1.35 1.35 0 00-.482-.566c-2.55-1.709-7.56-2.373-8.052-2.348h-.684a.428.428 0 00-.425.379l-.137 1.099c-.163 1.353-.247 1.433-.247 2.794v12.405h9.564v2.894h1.133c0-2.29 1.422-3.89 3.459-3.89 2.039 0 3.463 1.6 3.463 3.89v.245h1.164c.972 0 1.757-.943 1.757-1.757s-.003-.751-.003-1.395zm-15.924-3.62a.19.19 0 01-.378 0V48.38a.19.19 0 01.19-.189.19.19 0 01.188.189v4.626zm1.632-4.241a.605.605 0 01-.517-.566l-.143-2.707h4.383l1.356 4.012-5.079-.739zm13.221 7.861h-.679a1.86 1.86 0 01-1.078-.345l-.882-.629h2.077c.309 0 .562.252.562.562v.412z"/></g></switch></svg>